<svg width="48" height="48" viewBox="0 0 48 48" fill="none" xmlns="http://www.w3.org/2000/svg">
<path fill-rule="evenodd" clip-rule="evenodd" d="M6.85714 4H18.2857C19.8637 4 21.1429 5.27919 21.1429 6.85714V18.2857C21.1429 19.8637 19.8637 21.1429 18.2857 21.1429H6.85714C5.27919 21.1429 4 19.8637 4 18.2857V6.85714C4 5.27919 5.27919 4 6.85714 4ZM29.7143 26.8571H41.1429C42.7208 26.8571 44 28.1363 44 29.7143V41.1429C44 42.7208 42.7208 44 41.1429 44H29.7143C28.1363 44 26.8571 42.7208 26.8571 41.1429V29.7143C26.8571 28.1363 28.1363 26.8571 29.7143 26.8571Z" fill="#034935"/>
<path d="M29.7143 4H41.1429C42.7208 4 44 5.27919 44 6.85714V18.2857C44 19.8637 42.7208 21.1429 41.1429 21.1429H29.7143C28.1363 21.1429 26.8571 19.8637 26.8571 18.2857V6.85714C26.8571 5.27919 28.1363 4 29.7143 4ZM6.85714 26.8571H18.2857C19.8637 26.8571 21.1429 28.1363 21.1429 29.7143V41.1429C21.1429 42.7208 19.8637 44 18.2857 44H6.85714C5.27919 44 4 42.7208 4 41.1429V29.7143C4 28.1363 5.27919 26.8571 6.85714 26.8571Z" fill="#076537"/>
</svg>
