<svg width="900" height="600" viewBox="0 0 900 600" fill="none" xmlns="http://www.w3.org/2000/svg">
<g clip-path="url(#clip0_1004_10)">
<path d="M523.383 285.041C633.598 689.84 379.247 553.957 168.637 553.957C-439.013 677.127 -23.1356 378.977 -23.1356 212.407C-23.1356 45.837 135.84 16 346.45 16C557.06 16 473.611 102.238 523.383 285.041Z" fill="#076537" fill-opacity="0.2"/>
<path fill-rule="evenodd" clip-rule="evenodd" d="M91.066 515.923C79.994 515.923 71.029 506.928 71.066 495.857L71.308 421.69C71.318 418.391 72.145 415.146 73.714 412.244L181.509 212.83C187.638 201.493 202.731 198.826 212.373 207.377L318.368 301.374C321.138 303.83 324.534 305.47 328.18 306.11C331.826 306.75 335.579 306.365 339.019 304.999L439.941 264.928C444.33 263.185 449.195 263.052 453.673 264.551L526.941 289.09C530.208 290.184 533.703 290.416 537.086 289.762L600.007 277.607C603.978 276.84 607.623 274.887 610.461 272.006C613.299 269.124 615.197 265.451 615.905 261.469L626.112 204.036C626.814 200.086 628.688 196.439 631.49 193.567C634.292 190.696 637.892 188.734 641.824 187.935L732.234 169.577C744.626 167.061 756.214 176.532 756.214 189.177V495.923C756.214 506.968 747.259 515.923 736.214 515.923H91.065H91.066Z" fill="white" stroke="#E1E4E5" stroke-width="4" stroke-linecap="round" stroke-linejoin="round"/>
<path fill-rule="evenodd" clip-rule="evenodd" d="M151.5 472.969H154.489C155.211 472.969 155.793 473.557 155.793 474.273V477.262C155.793 477.985 155.205 478.566 154.489 478.566H151.5C151.154 478.565 150.823 478.427 150.579 478.183C150.334 477.939 150.196 477.608 150.195 477.262V474.273C150.195 474.102 150.228 473.932 150.294 473.774C150.359 473.615 150.455 473.471 150.577 473.35C150.698 473.229 150.842 473.133 151 473.068C151.159 473.002 151.328 472.969 151.5 472.969V472.969ZM161.861 472.969H164.85C165.195 472.97 165.526 473.108 165.771 473.352C166.015 473.597 166.153 473.928 166.155 474.273V477.262C166.155 477.985 165.567 478.566 164.85 478.566H161.861C161.515 478.565 161.185 478.427 160.94 478.182C160.696 477.938 160.558 477.607 160.557 477.262V474.273C160.558 473.928 160.696 473.597 160.94 473.353C161.185 473.109 161.515 472.971 161.861 472.969V472.969ZM172.23 472.969H175.219C175.936 472.969 176.523 473.557 176.523 474.273V477.262C176.523 477.985 175.936 478.566 175.219 478.566H172.23C171.884 478.565 171.554 478.427 171.309 478.182C171.065 477.938 170.927 477.607 170.926 477.262V474.273C170.926 474.102 170.959 473.932 171.025 473.774C171.09 473.615 171.186 473.472 171.307 473.35C171.428 473.229 171.572 473.133 171.73 473.068C171.889 473.002 172.058 472.969 172.23 472.969V472.969ZM182.592 472.969H185.58C185.925 472.97 186.256 473.108 186.501 473.352C186.745 473.597 186.883 473.928 186.885 474.273V477.262C186.885 477.985 186.297 478.566 185.58 478.566H182.592C182.245 478.566 181.913 478.429 181.667 478.185C181.421 477.94 181.282 477.609 181.281 477.262V474.273C181.285 473.927 181.424 473.597 181.67 473.353C181.915 473.109 182.246 472.971 182.592 472.969V472.969ZM192.954 472.969H195.943C196.289 472.969 196.622 473.106 196.868 473.35C197.113 473.595 197.252 473.927 197.254 474.273V477.262C197.254 477.985 196.666 478.566 195.943 478.566H192.954C192.608 478.565 192.278 478.427 192.033 478.182C191.789 477.938 191.651 477.607 191.65 477.262V474.273C191.651 473.928 191.789 473.597 192.033 473.353C192.278 473.109 192.608 472.971 192.954 472.969V472.969ZM162.242 484.268H165.23C165.575 484.269 165.906 484.407 166.151 484.651C166.395 484.896 166.533 485.227 166.535 485.572V488.567C166.534 488.913 166.396 489.244 166.151 489.488C165.907 489.733 165.576 489.871 165.23 489.872H162.242C161.896 489.872 161.564 489.734 161.319 489.49C161.075 489.245 160.937 488.913 160.937 488.567V485.579C160.936 485.407 160.969 485.237 161.034 485.078C161.099 484.918 161.195 484.774 161.316 484.652C161.438 484.53 161.582 484.433 161.741 484.367C161.9 484.302 162.07 484.268 162.242 484.268V484.268ZM172.603 484.268H175.592C176.309 484.268 176.896 484.856 176.896 485.572V488.567C176.896 489.284 176.309 489.872 175.592 489.872H172.603C172.257 489.871 171.926 489.732 171.682 489.488C171.438 489.244 171.3 488.913 171.299 488.567V485.579C171.298 485.407 171.331 485.237 171.396 485.078C171.461 484.919 171.557 484.774 171.678 484.652C171.799 484.53 171.943 484.434 172.102 484.368C172.261 484.302 172.431 484.268 172.603 484.268V484.268ZM182.966 484.268H185.955C186.677 484.268 187.265 484.856 187.265 485.572V488.567C187.263 488.914 187.125 489.246 186.879 489.49C186.634 489.735 186.301 489.872 185.955 489.872H182.966C182.62 489.871 182.289 489.733 182.044 489.488C181.8 489.244 181.662 488.913 181.661 488.567V485.579C181.661 484.856 182.249 484.268 182.966 484.268ZM172.23 460.83H175.219C175.936 460.83 176.523 461.418 176.523 462.135V465.123C176.523 465.846 175.936 466.428 175.219 466.428H172.23C171.884 466.427 171.553 466.288 171.309 466.044C171.065 465.8 170.927 465.469 170.926 465.123V462.135C170.925 461.964 170.959 461.794 171.024 461.635C171.09 461.477 171.186 461.333 171.307 461.212C171.428 461.091 171.572 460.994 171.73 460.929C171.889 460.863 172.058 460.83 172.23 460.83V460.83ZM161.872 460.83H164.86C165.206 460.831 165.537 460.969 165.781 461.214C166.026 461.458 166.163 461.789 166.165 462.135V465.123C166.165 465.846 165.577 466.428 164.86 466.428H161.872C161.526 466.427 161.195 466.289 160.951 466.044C160.706 465.8 160.568 465.469 160.567 465.123V462.135C160.566 461.964 160.6 461.794 160.665 461.635C160.731 461.477 160.827 461.333 160.948 461.211C161.069 461.09 161.213 460.994 161.372 460.929C161.53 460.863 161.7 460.83 161.872 460.83ZM182.592 460.83H185.58C185.926 460.831 186.257 460.969 186.501 461.214C186.746 461.458 186.883 461.789 186.885 462.135V465.123C186.885 465.846 186.297 466.428 185.58 466.428H182.592C182.245 466.428 181.913 466.291 181.667 466.046C181.421 465.802 181.282 465.47 181.281 465.123V462.135C181.284 461.789 181.424 461.458 181.669 461.214C181.914 460.97 182.246 460.832 182.592 460.83V460.83ZM226.105 472.969H229.093C229.816 472.969 230.398 473.557 230.398 474.273V477.262C230.398 477.985 229.81 478.566 229.093 478.566H226.105C225.759 478.565 225.428 478.427 225.184 478.183C224.939 477.939 224.801 477.608 224.8 477.262V474.273C224.8 474.102 224.833 473.932 224.899 473.774C224.964 473.615 225.06 473.471 225.182 473.35C225.303 473.229 225.447 473.133 225.605 473.068C225.764 473.002 225.933 472.969 226.105 472.969V472.969ZM236.466 472.969H239.455C239.8 472.971 240.131 473.109 240.375 473.353C240.619 473.597 240.757 473.928 240.759 474.273V477.262C240.759 477.985 240.171 478.566 239.455 478.566H236.466C236.12 478.565 235.79 478.427 235.545 478.182C235.301 477.938 235.163 477.607 235.162 477.262V474.273C235.163 473.928 235.301 473.597 235.545 473.353C235.79 473.109 236.12 472.971 236.466 472.969V472.969ZM246.835 472.969H249.824C250.169 472.971 250.5 473.109 250.744 473.353C250.988 473.597 251.126 473.928 251.128 474.273V477.262C251.128 477.985 250.54 478.566 249.824 478.566H246.835C246.489 478.565 246.159 478.427 245.914 478.182C245.67 477.938 245.532 477.607 245.531 477.262V474.273C245.53 474.102 245.564 473.932 245.629 473.774C245.695 473.615 245.791 473.471 245.912 473.35C246.033 473.229 246.177 473.133 246.335 473.068C246.494 473.002 246.663 472.969 246.835 472.969V472.969ZM257.196 472.969H260.185C260.53 472.97 260.861 473.108 261.106 473.352C261.35 473.597 261.488 473.928 261.49 474.273V477.262C261.49 477.985 260.902 478.566 260.185 478.566H257.196C256.849 478.566 256.517 478.429 256.272 478.185C256.026 477.94 255.887 477.608 255.886 477.262V474.273C255.889 473.927 256.029 473.597 256.274 473.353C256.519 473.109 256.85 472.971 257.196 472.969V472.969ZM267.559 472.969H270.548C271.27 472.969 271.858 473.557 271.858 474.273V477.262C271.858 477.985 271.27 478.566 270.548 478.566H267.559C267.213 478.565 266.883 478.427 266.638 478.182C266.394 477.938 266.256 477.607 266.255 477.262V474.273C266.256 473.928 266.394 473.597 266.638 473.353C266.883 473.109 267.213 472.971 267.559 472.969V472.969ZM236.846 484.268H239.835C240.18 484.27 240.511 484.408 240.755 484.652C240.999 484.896 241.137 485.227 241.139 485.572V488.567C241.138 488.913 241 489.244 240.755 489.488C240.511 489.732 240.18 489.871 239.835 489.872H236.846C236.5 489.872 236.168 489.734 235.924 489.489C235.68 489.245 235.542 488.913 235.542 488.567V485.579C235.541 485.407 235.574 485.237 235.639 485.078C235.704 484.919 235.8 484.774 235.921 484.652C236.042 484.53 236.186 484.434 236.345 484.368C236.504 484.302 236.674 484.268 236.846 484.268V484.268ZM247.208 484.268H250.197C250.542 484.27 250.873 484.408 251.117 484.652C251.361 484.896 251.499 485.227 251.501 485.572V488.567C251.5 488.913 251.362 489.244 251.117 489.488C250.873 489.732 250.542 489.871 250.197 489.872H247.208C246.862 489.871 246.531 489.732 246.287 489.488C246.043 489.244 245.905 488.913 245.904 488.567V485.579C245.903 485.407 245.936 485.237 246.001 485.078C246.066 484.919 246.162 484.774 246.283 484.652C246.404 484.53 246.548 484.434 246.707 484.368C246.866 484.302 247.036 484.268 247.208 484.268V484.268ZM257.571 484.268H260.559C260.905 484.268 261.238 484.405 261.484 484.649C261.729 484.894 261.868 485.226 261.87 485.572V488.567C261.87 489.284 261.282 489.872 260.559 489.872H257.571C257.225 489.871 256.894 489.733 256.65 489.488C256.405 489.244 256.267 488.913 256.266 488.567V485.579C256.266 484.856 256.854 484.268 257.571 484.268ZM246.835 460.83H249.824C250.169 460.832 250.5 460.97 250.744 461.214C250.989 461.459 251.127 461.79 251.128 462.135V465.123C251.128 465.846 250.54 466.428 249.824 466.428H246.835C246.489 466.427 246.158 466.288 245.914 466.044C245.67 465.8 245.532 465.469 245.531 465.123V462.135C245.53 461.964 245.564 461.794 245.629 461.635C245.694 461.477 245.79 461.333 245.912 461.211C246.033 461.09 246.177 460.994 246.335 460.929C246.494 460.863 246.663 460.83 246.835 460.83V460.83ZM236.476 460.83H239.465C239.811 460.831 240.142 460.969 240.386 461.214C240.631 461.458 240.769 461.789 240.77 462.135V465.123C240.77 465.846 240.182 466.428 239.465 466.428H236.476C236.13 466.427 235.799 466.288 235.555 466.044C235.311 465.8 235.173 465.469 235.172 465.123V462.135C235.171 461.964 235.205 461.794 235.27 461.635C235.336 461.477 235.432 461.333 235.553 461.212C235.674 461.091 235.818 460.994 235.976 460.929C236.135 460.863 236.304 460.83 236.476 460.83V460.83ZM257.196 460.83H260.185C260.531 460.831 260.862 460.969 261.106 461.214C261.351 461.458 261.488 461.789 261.49 462.135V465.123C261.49 465.846 260.902 466.428 260.185 466.428H257.196C256.849 466.428 256.517 466.291 256.271 466.046C256.026 465.802 255.887 465.47 255.886 465.123V462.135C255.889 461.789 256.029 461.459 256.274 461.215C256.519 460.971 256.85 460.832 257.196 460.83V460.83ZM300.709 472.969H303.698C304.42 472.969 305.002 473.557 305.002 474.273V477.262C305.002 477.985 304.414 478.566 303.698 478.566H300.709C300.363 478.565 300.033 478.427 299.788 478.182C299.544 477.938 299.406 477.607 299.405 477.262V474.273C299.404 474.102 299.438 473.932 299.503 473.774C299.569 473.615 299.665 473.471 299.786 473.35C299.907 473.229 300.051 473.133 300.209 473.068C300.368 473.002 300.537 472.969 300.709 472.969ZM311.071 472.969H314.059C314.404 472.97 314.735 473.108 314.98 473.352C315.224 473.597 315.362 473.928 315.364 474.273V477.262C315.364 477.985 314.776 478.566 314.059 478.566H311.071C310.725 478.565 310.394 478.427 310.15 478.183C309.905 477.939 309.767 477.608 309.766 477.262V474.273C309.767 473.928 309.905 473.597 310.15 473.352C310.394 473.108 310.725 472.97 311.071 472.969V472.969ZM321.44 472.969H324.428C324.773 472.97 325.104 473.108 325.349 473.352C325.593 473.597 325.731 473.928 325.733 474.273V477.262C325.733 477.985 325.145 478.566 324.428 478.566H321.44C321.094 478.565 320.763 478.427 320.519 478.183C320.274 477.939 320.136 477.608 320.135 477.262V474.273C320.135 474.102 320.168 473.932 320.234 473.774C320.299 473.615 320.395 473.471 320.517 473.35C320.638 473.229 320.782 473.133 320.94 473.068C321.099 473.002 321.268 472.969 321.44 472.969V472.969ZM331.801 472.969H334.79C335.135 472.971 335.466 473.109 335.71 473.353C335.954 473.597 336.092 473.928 336.094 474.273V477.262C336.094 477.985 335.506 478.566 334.79 478.566H331.801C331.454 478.566 331.122 478.429 330.876 478.185C330.63 477.94 330.491 477.609 330.49 477.262V474.273C330.494 473.927 330.633 473.597 330.879 473.353C331.124 473.109 331.455 472.971 331.801 472.969ZM342.164 472.969H345.152C345.498 472.969 345.831 473.106 346.077 473.35C346.322 473.595 346.461 473.927 346.463 474.273V477.262C346.463 477.985 345.875 478.566 345.152 478.566H342.164C341.818 478.565 341.487 478.427 341.243 478.183C340.998 477.939 340.86 477.608 340.859 477.262V474.273C340.86 473.928 340.998 473.597 341.243 473.352C341.487 473.108 341.818 472.97 342.164 472.969V472.969ZM311.451 484.268H314.439C314.784 484.269 315.115 484.407 315.36 484.651C315.604 484.896 315.742 485.227 315.744 485.572V488.567C315.742 488.913 315.605 489.244 315.36 489.488C315.116 489.733 314.785 489.871 314.439 489.872H311.451C311.105 489.872 310.773 489.734 310.528 489.49C310.284 489.245 310.146 488.913 310.146 488.567V485.579C310.145 485.407 310.178 485.237 310.243 485.078C310.308 484.918 310.404 484.774 310.525 484.652C310.647 484.53 310.791 484.433 310.95 484.367C311.109 484.302 311.279 484.268 311.451 484.268V484.268ZM321.813 484.268H324.801C325.146 484.269 325.477 484.407 325.722 484.651C325.966 484.896 326.104 485.227 326.106 485.572V488.567C326.104 488.913 325.967 489.244 325.722 489.488C325.478 489.733 325.147 489.871 324.801 489.872H321.813C321.467 489.871 321.136 489.733 320.892 489.488C320.647 489.244 320.509 488.913 320.508 488.567V485.579C320.507 485.407 320.54 485.237 320.605 485.078C320.67 484.918 320.766 484.774 320.887 484.652C321.009 484.53 321.153 484.433 321.312 484.367C321.471 484.302 321.641 484.268 321.813 484.268V484.268ZM332.175 484.268H335.164C335.886 484.268 336.474 484.856 336.474 485.572V488.567C336.472 488.914 336.334 489.246 336.088 489.49C335.843 489.735 335.51 489.872 335.164 489.872H332.175C331.829 489.871 331.498 489.732 331.254 489.488C331.01 489.244 330.872 488.913 330.871 488.567V485.579C330.871 485.233 331.008 484.9 331.252 484.654C331.496 484.409 331.828 484.27 332.175 484.268V484.268ZM321.44 460.83H324.428C324.774 460.831 325.105 460.969 325.349 461.214C325.594 461.458 325.732 461.789 325.733 462.135V465.123C325.733 465.846 325.145 466.428 324.428 466.428H321.44C321.094 466.427 320.763 466.289 320.518 466.044C320.274 465.8 320.136 465.469 320.135 465.123V462.135C320.134 461.964 320.168 461.794 320.233 461.635C320.299 461.477 320.395 461.333 320.516 461.211C320.637 461.09 320.781 460.994 320.94 460.929C321.098 460.863 321.268 460.83 321.44 460.83V460.83ZM311.081 460.83H314.07C314.415 460.832 314.746 460.97 314.99 461.214C315.235 461.459 315.372 461.79 315.374 462.135V465.123C315.374 465.846 314.786 466.428 314.07 466.428H311.081C310.735 466.427 310.404 466.289 310.159 466.044C309.915 465.8 309.777 465.469 309.776 465.123V462.135C309.775 461.964 309.809 461.794 309.874 461.635C309.94 461.477 310.036 461.333 310.157 461.211C310.278 461.09 310.422 460.994 310.581 460.929C310.739 460.863 310.909 460.83 311.081 460.83V460.83ZM331.801 460.83H334.79C335.135 460.832 335.466 460.97 335.71 461.214C335.955 461.459 336.092 461.79 336.094 462.135V465.123C336.094 465.846 335.506 466.428 334.79 466.428H331.801C331.454 466.428 331.122 466.291 330.876 466.046C330.63 465.802 330.491 465.47 330.49 465.123V462.135C330.493 461.789 330.633 461.458 330.878 461.214C331.123 460.97 331.455 460.832 331.801 460.83V460.83ZM375.314 472.969H378.302C379.025 472.969 379.607 473.557 379.607 474.273V477.262C379.607 477.985 379.019 478.566 378.302 478.566H375.314C374.968 478.565 374.637 478.427 374.393 478.183C374.148 477.939 374.01 477.608 374.009 477.262V474.273C374.009 474.102 374.042 473.932 374.108 473.774C374.173 473.615 374.269 473.471 374.391 473.35C374.512 473.229 374.656 473.133 374.814 473.068C374.973 473.002 375.142 472.969 375.314 472.969V472.969ZM385.675 472.969H388.664C389.009 472.971 389.34 473.109 389.584 473.353C389.828 473.597 389.966 473.928 389.968 474.273V477.262C389.968 477.985 389.38 478.566 388.664 478.566H385.675C385.329 478.565 384.999 478.427 384.754 478.182C384.51 477.938 384.372 477.607 384.371 477.262V474.273C384.372 473.928 384.51 473.597 384.754 473.353C384.999 473.109 385.329 472.971 385.675 472.969V472.969ZM396.044 472.969H399.033C399.378 472.971 399.709 473.109 399.953 473.353C400.197 473.597 400.335 473.928 400.337 474.273V477.262C400.337 477.985 399.749 478.566 399.033 478.566H396.044C395.698 478.565 395.368 478.427 395.124 478.182C394.879 477.938 394.741 477.607 394.74 477.262V474.273C394.739 474.102 394.773 473.932 394.838 473.773C394.903 473.615 394.999 473.471 395.121 473.35C395.242 473.229 395.386 473.133 395.544 473.067C395.703 473.002 395.872 472.969 396.044 472.969V472.969ZM406.405 472.969H409.394C410.111 472.969 410.698 473.557 410.698 474.273V477.262C410.698 477.985 410.111 478.566 409.394 478.566H406.405C406.058 478.566 405.726 478.429 405.481 478.185C405.235 477.94 405.096 477.608 405.095 477.262V474.273C405.098 473.927 405.238 473.597 405.483 473.353C405.728 473.109 406.059 472.971 406.405 472.969V472.969ZM416.768 472.969H419.757C420.479 472.969 421.067 473.557 421.067 474.273V477.262C421.067 477.985 420.479 478.566 419.757 478.566H416.768C416.422 478.565 416.092 478.427 415.848 478.182C415.603 477.938 415.465 477.607 415.464 477.262V474.273C415.465 473.928 415.603 473.597 415.848 473.353C416.092 473.109 416.422 472.971 416.768 472.969V472.969ZM386.055 484.268H389.044C389.389 484.27 389.72 484.408 389.964 484.652C390.208 484.896 390.346 485.227 390.348 485.572V488.567C390.346 488.913 390.209 489.244 389.964 489.488C389.72 489.732 389.389 489.871 389.044 489.872H386.055C385.709 489.872 385.377 489.734 385.133 489.489C384.889 489.245 384.751 488.913 384.751 488.567V485.579C384.75 485.407 384.783 485.237 384.848 485.078C384.913 484.919 385.009 484.774 385.13 484.652C385.251 484.53 385.395 484.434 385.554 484.368C385.713 484.302 385.883 484.268 386.055 484.268V484.268ZM396.417 484.268H399.406C399.751 484.27 400.082 484.408 400.326 484.652C400.57 484.896 400.708 485.227 400.71 485.572V488.567C400.708 488.913 400.571 489.244 400.326 489.488C400.082 489.732 399.751 489.871 399.406 489.872H396.417C396.071 489.871 395.74 489.732 395.496 489.488C395.252 489.244 395.114 488.913 395.113 488.567V485.579C395.112 485.407 395.145 485.237 395.21 485.078C395.275 484.919 395.371 484.774 395.492 484.652C395.613 484.53 395.757 484.434 395.916 484.368C396.075 484.302 396.245 484.268 396.417 484.268V484.268ZM406.78 484.268H409.768C410.114 484.268 410.447 484.405 410.693 484.649C410.938 484.894 411.077 485.226 411.079 485.572V488.567C411.079 489.284 410.491 489.872 409.768 489.872H406.78C406.434 489.871 406.103 489.733 405.858 489.488C405.614 489.244 405.476 488.913 405.475 488.567V485.579C405.475 484.856 406.063 484.268 406.78 484.268ZM396.044 460.83H399.033C399.378 460.832 399.709 460.97 399.953 461.214C400.198 461.459 400.336 461.79 400.337 462.135V465.123C400.337 465.846 399.749 466.428 399.033 466.428H396.044C395.698 466.427 395.367 466.288 395.123 466.044C394.879 465.8 394.741 465.469 394.74 465.123V462.135C394.739 461.964 394.772 461.794 394.838 461.635C394.903 461.477 394.999 461.333 395.12 461.211C395.241 461.09 395.385 460.994 395.544 460.928C395.702 460.863 395.872 460.83 396.044 460.83V460.83ZM385.685 460.83H388.674C389.02 460.831 389.351 460.969 389.595 461.214C389.84 461.458 389.978 461.789 389.979 462.135V465.123C389.979 465.846 389.391 466.428 388.674 466.428H385.685C385.339 466.427 385.008 466.288 384.764 466.044C384.52 465.8 384.382 465.469 384.381 465.123V462.135C384.38 461.964 384.414 461.794 384.479 461.635C384.545 461.477 384.641 461.333 384.762 461.212C384.883 461.091 385.027 460.994 385.185 460.929C385.344 460.863 385.513 460.83 385.685 460.83V460.83ZM406.405 460.83H409.394C410.111 460.83 410.698 461.418 410.698 462.135V465.123C410.698 465.846 410.111 466.428 409.394 466.428H406.405C406.058 466.428 405.726 466.291 405.48 466.046C405.235 465.802 405.096 465.47 405.095 465.123V462.135C405.098 461.789 405.238 461.459 405.483 461.215C405.728 460.971 406.059 460.832 406.405 460.83V460.83ZM449.918 472.969H452.907C453.629 472.969 454.211 473.557 454.211 474.273V477.262C454.211 477.985 453.623 478.566 452.907 478.566H449.918C449.572 478.565 449.242 478.427 448.997 478.182C448.753 477.938 448.615 477.607 448.614 477.262V474.273C448.613 474.102 448.647 473.932 448.712 473.774C448.778 473.615 448.874 473.471 448.995 473.35C449.116 473.229 449.26 473.133 449.418 473.068C449.577 473.002 449.746 472.969 449.918 472.969V472.969ZM460.28 472.969H463.268C463.613 472.97 463.944 473.108 464.189 473.352C464.433 473.597 464.571 473.928 464.573 474.273V477.262C464.573 477.985 463.985 478.566 463.268 478.566H460.28C459.934 478.565 459.603 478.427 459.359 478.183C459.114 477.939 458.976 477.608 458.975 477.262V474.273C458.976 473.928 459.114 473.597 459.359 473.352C459.603 473.108 459.934 472.97 460.28 472.969V472.969ZM470.649 472.969H473.637C473.982 472.97 474.313 473.108 474.558 473.352C474.802 473.597 474.94 473.928 474.942 474.273V477.262C474.942 477.985 474.354 478.566 473.637 478.566H470.649C470.303 478.565 469.972 478.427 469.728 478.183C469.483 477.939 469.345 477.608 469.344 477.262V474.273C469.344 474.102 469.377 473.932 469.443 473.774C469.508 473.615 469.604 473.471 469.726 473.35C469.847 473.229 469.991 473.133 470.149 473.068C470.308 473.002 470.477 472.969 470.649 472.969V472.969ZM481.01 472.969H483.999C484.344 472.971 484.675 473.109 484.919 473.353C485.163 473.597 485.301 473.928 485.303 474.273V477.262C485.303 477.985 484.715 478.566 483.999 478.566H481.01C480.663 478.566 480.331 478.429 480.085 478.185C479.839 477.94 479.7 477.609 479.699 477.262V474.273C479.703 473.927 479.842 473.597 480.088 473.353C480.333 473.109 480.664 472.971 481.01 472.969ZM491.373 472.969H494.361C494.707 472.969 495.04 473.106 495.286 473.35C495.531 473.595 495.67 473.927 495.672 474.273V477.262C495.672 477.985 495.084 478.566 494.361 478.566H491.373C491.027 478.565 490.696 478.427 490.452 478.183C490.207 477.939 490.069 477.608 490.068 477.262V474.273C490.069 473.928 490.207 473.597 490.452 473.352C490.696 473.108 491.027 472.97 491.373 472.969V472.969ZM460.66 484.268H463.648C463.993 484.269 464.324 484.407 464.569 484.651C464.813 484.896 464.951 485.227 464.953 485.572V488.567C464.952 488.913 464.814 489.244 464.569 489.488C464.325 489.733 463.994 489.871 463.648 489.872H460.66C460.314 489.872 459.982 489.734 459.737 489.49C459.493 489.245 459.355 488.913 459.355 488.567V485.579C459.354 485.407 459.387 485.237 459.452 485.078C459.517 484.918 459.613 484.774 459.734 484.652C459.856 484.53 460 484.433 460.159 484.367C460.318 484.302 460.488 484.268 460.66 484.268V484.268ZM471.022 484.268H474.01C474.355 484.269 474.686 484.407 474.931 484.651C475.175 484.896 475.313 485.227 475.315 485.572V488.567C475.314 488.913 475.176 489.244 474.931 489.488C474.687 489.733 474.356 489.871 474.01 489.872H471.022C470.676 489.871 470.345 489.733 470.1 489.488C469.856 489.244 469.718 488.913 469.717 488.567V485.579C469.716 485.407 469.749 485.237 469.814 485.078C469.879 484.918 469.975 484.774 470.096 484.652C470.218 484.53 470.362 484.433 470.521 484.367C470.68 484.302 470.85 484.268 471.022 484.268V484.268ZM481.384 484.268H484.373C485.095 484.268 485.683 484.856 485.683 485.572V488.567C485.682 488.914 485.543 489.246 485.297 489.49C485.052 489.735 484.719 489.872 484.373 489.872H481.384C481.038 489.871 480.707 489.732 480.463 489.488C480.219 489.244 480.081 488.913 480.08 488.567V485.579C480.08 485.233 480.217 484.9 480.461 484.654C480.705 484.409 481.037 484.27 481.384 484.268V484.268ZM470.649 460.83H473.637C473.983 460.831 474.314 460.969 474.558 461.214C474.803 461.458 474.94 461.789 474.942 462.135V465.123C474.942 465.846 474.354 466.428 473.637 466.428H470.649C470.303 466.427 469.972 466.289 469.728 466.044C469.483 465.8 469.345 465.469 469.344 465.123V462.135C469.343 461.964 469.377 461.794 469.442 461.635C469.508 461.477 469.604 461.333 469.725 461.211C469.846 461.09 469.99 460.994 470.149 460.929C470.307 460.863 470.477 460.83 470.649 460.83ZM460.29 460.83H463.279C463.624 460.832 463.955 460.97 464.199 461.214C464.444 461.459 464.582 461.79 464.583 462.135V465.123C464.583 465.846 463.995 466.428 463.279 466.428H460.29C459.944 466.427 459.613 466.289 459.368 466.044C459.124 465.8 458.986 465.469 458.985 465.123V462.135C458.984 461.964 459.018 461.794 459.083 461.635C459.149 461.477 459.245 461.333 459.366 461.211C459.487 461.09 459.631 460.994 459.79 460.929C459.948 460.863 460.118 460.83 460.29 460.83V460.83ZM481.01 460.83H483.999C484.344 460.832 484.675 460.97 484.919 461.214C485.164 461.459 485.302 461.79 485.303 462.135V465.123C485.303 465.846 484.715 466.428 483.999 466.428H481.01C480.663 466.428 480.331 466.291 480.085 466.046C479.839 465.802 479.7 465.47 479.699 465.123V462.135C479.702 461.789 479.842 461.458 480.087 461.214C480.332 460.97 480.664 460.832 481.01 460.83V460.83Z" fill="#F3BA21"/>
<path d="M693.521 319.351C693.521 319.351 670.14 334.651 650.371 333.084C630.603 331.517 618.27 311.876 611.651 304.745C605.037 297.615 588.364 280.386 593.366 273.161C598.368 265.936 602.814 273.717 604.481 278.719C606.149 283.72 604.509 273.75 606.999 274.289C609.483 274.828 608.494 280.881 610.934 282.859C613.374 284.832 649.499 303.728 657.28 302.617C665.06 301.505 668.467 299.371 670.657 297.103C672.841 294.83 696.417 314.41 693.521 319.351V319.351Z" fill="#F8AE9D"/>
<path d="M617.07 505.456L617.009 515.932L593.072 528.831V534.472H640.946V524.802L643.452 505.456H617.07Z" fill="#034935"/>
<path d="M737.149 377.657C737.149 377.657 671.063 355.071 640.54 358.744C610.478 364.858 610.25 401.116 610.361 422.447C610.473 443.777 614.013 505.468 614.013 505.468H647.615C647.615 505.468 659.636 449.985 663.649 423.814C663.649 423.814 665.299 412.098 674.142 416.544C710.344 434.751 733.086 426.548 737.216 409.319C741.345 392.091 737.149 377.657 737.149 377.657V377.657Z" fill="#31446C"/>
<path d="M709.828 280.97C709.828 280.97 688.203 291.613 670.618 294.275C652.278 297.054 677.843 320.952 697.851 320.952C717.859 320.952 709.828 280.97 709.828 280.97V280.97Z" fill="#076537"/>
<path d="M799.068 518.327L811.895 518.388L823.861 534.506H829.846V489.366H819.587L799.068 493.457V518.327V518.327Z" fill="#034935"/>
<path d="M799.106 519.361V491.573C771.99 488.794 761.386 488.466 732.908 488.333C712.456 488.238 723.066 482.681 723.066 482.681C745.463 467.119 768.456 429.327 768.456 429.327C782.011 408.207 774.352 375.417 774.352 375.417C774.352 375.417 749.593 382.642 728.373 381.53C728.373 381.53 705.387 409.875 665.299 472.121C649.282 496.992 651.116 524.274 681.2 525.708C681.2 525.708 753.717 526.586 799.106 519.361V519.361Z" fill="#31446C"/>
<path d="M717.525 277.98C717.525 277.98 698.407 281.492 696.067 306.246C694.322 324.72 695.761 349.774 695.761 357.833C695.761 365.891 691.654 365.213 697.295 367.631C702.936 370.048 732.864 394.308 773.947 375.567C773.947 375.567 780.36 338.431 778.437 315.944C777.226 301.8 773.435 278.708 748.959 276.724L717.525 277.98V277.98Z" fill="#076537"/>
<path d="M723.261 239.443L712.751 239.198C712.751 239.198 704.07 277.213 725.567 272.889L725.161 276.902C725.161 276.902 718.587 277.863 716.097 278.419C716.097 278.419 723.555 284.838 732.536 284.121C741.518 283.404 747.781 277.552 747.781 277.552L743.368 277.107L741.734 261.146C741.734 261.146 746.87 258.422 747.192 255.215C747.514 252.009 746.792 251.125 744.469 250.08C742.146 249.035 738.533 252.726 738.533 252.726C738.533 252.726 735.249 245.106 734.932 240.21L723.261 239.443V239.443Z" fill="#F8AE9D"/>
<path d="M622.267 259.817L781.65 390.901C786.958 395.258 787.775 403.072 783.484 408.435C779.16 413.838 771.279 414.721 765.866 410.408L603.926 280.936L622.267 259.817V259.817Z" fill="#31446C"/>
<path d="M563.355 140.604C607.711 140.604 643.664 176.557 643.664 220.913C643.664 265.269 607.711 301.222 563.355 301.222C518.999 301.222 483.046 265.269 483.046 220.913C483.046 176.557 518.999 140.604 563.355 140.604V140.604ZM563.355 277.691C594.711 277.691 620.132 252.27 620.132 220.913C620.132 189.557 594.711 164.136 563.355 164.136C531.998 164.136 506.577 189.557 506.577 220.913C506.577 252.27 531.998 277.691 563.355 277.691Z" fill="#788FC0"/>
<path d="M756.324 365.48C756.324 365.48 732.942 380.78 713.174 379.213C693.405 377.645 681.072 358.004 674.453 350.874C667.839 343.743 651.166 326.515 656.168 319.29C661.17 312.065 665.616 319.845 667.284 324.847C668.951 329.849 667.312 319.879 669.801 320.418C672.286 320.957 671.296 327.009 673.736 328.988C676.176 330.961 712.301 349.857 720.082 348.745C727.863 347.634 731.269 345.5 733.459 343.232C735.643 340.959 759.219 360.539 756.324 365.48V365.48Z" fill="#F8AE9D"/>
<path d="M776.748 304.067C776.748 304.067 777.882 339.848 769.545 354.854C761.209 369.859 760.614 370.348 752.85 362.323C745.091 354.298 731.197 346.184 733.142 339.681C735.087 333.179 739.083 321.958 740.645 312.059C742.312 301.5 746.203 279.825 754.539 277.046C754.539 277.046 774.503 284.41 776.748 304.067Z" fill="#076537"/>
<path d="M746.555 260.918C744.838 263.659 740.723 263.646 741.446 260.493C742.268 256.91 742.779 252.16 739.724 252.721C736.669 253.282 736.261 255.63 735.196 254.119C734.131 252.609 734.742 246.79 725.975 245.422C717.207 244.06 713.295 246.729 709.398 244.485C707.062 243.142 706.288 240.379 706.043 238.378C705.973 237.81 706.459 237.079 706.782 237.551C707.088 237.997 707.971 238.067 707.772 237.564C706.54 234.457 704.92 227.797 711.352 223.666C719.963 218.135 727.574 223.197 732.123 223.97C742.148 225.676 748.599 226.988 751.173 233.959C753.307 239.742 751.364 253.244 746.555 260.918V260.918Z" fill="#31446C"/>
<path d="M257.167 185.367H91C79.9543 185.367 71 194.321 71 205.367V416.204C71 427.25 79.9543 436.204 91 436.204H257.167C268.213 436.204 277.167 427.25 277.167 416.204V205.367C277.167 194.321 268.213 185.367 257.167 185.367Z" fill="white" stroke="#E1E4E5" stroke-width="4" stroke-linecap="round" stroke-linejoin="round"/>
<path d="M233.127 97.9369L222.283 108.771L217.014 103.518M256.624 92.7529H288.675M256.874 108.654H309.877M309.876 145.756H256.624M309.877 129.855H256.874" stroke="#E1E4E5" stroke-width="5.5" stroke-linecap="round" stroke-linejoin="round"/>
<path d="M362.824 97.9369L351.98 108.771L346.711 103.518M386.321 92.7529H418.372M386.571 108.654H439.574M439.573 145.756H386.321M439.574 129.855H386.571" stroke="#E1E4E5" stroke-width="5.5" stroke-linecap="round" stroke-linejoin="round"/>
<path d="M362.824 193.201L351.98 204.035L346.711 198.783M386.321 188.017H418.372M386.571 203.918H439.574M439.573 241.02H386.321M439.574 225.119H386.571" stroke="#E1E4E5" stroke-width="5.5" stroke-linecap="round" stroke-linejoin="round"/>
<path d="M354.768 246.321C360.622 246.321 365.368 241.575 365.368 235.72C365.368 229.865 360.622 225.119 354.768 225.119C348.913 225.119 344.167 229.865 344.167 235.72C344.167 241.575 348.913 246.321 354.768 246.321Z" stroke="#E1E4E5" stroke-width="5.5" stroke-linecap="round" stroke-linejoin="round"/>
<path d="M89.6569 97.9369L78.813 108.771L73.5439 103.518M113.154 92.7529H145.205M113.403 108.654H166.406M166.406 145.756H113.154M166.406 129.855H113.403" stroke="#E1E4E5" stroke-width="5.5" stroke-linecap="round" stroke-linejoin="round"/>
<path d="M315.332 246.198C310.972 246.198 307.438 249.732 307.438 254.092C307.438 258.452 310.972 261.986 315.332 261.986C319.692 261.986 323.226 258.452 323.226 254.092C323.226 249.732 319.692 246.198 315.332 246.198Z" fill="#076537"/>
<path d="M433.091 363.215C420.746 363.215 410.737 353.207 410.737 340.861C410.737 328.515 420.746 318.507 433.091 318.507C445.437 318.507 455.445 328.515 455.445 340.861C455.445 353.207 445.437 363.215 433.091 363.215Z" fill="#076537"/>
<path d="M340.363 406.163C332.956 406.163 326.951 400.158 326.951 392.751C326.951 385.344 332.956 379.339 340.363 379.339C347.77 379.339 353.775 385.344 353.775 392.751C353.775 400.158 347.77 406.163 340.363 406.163Z" fill="#034935"/>
<path d="M81.6 151.056C87.455 151.056 92.201 146.31 92.201 140.456C92.201 134.601 87.455 129.855 81.601 129.855C75.746 129.855 71 134.601 71 140.456C71 146.31 75.746 151.056 81.6 151.056Z" stroke="#E1E4E5" stroke-width="5.5" stroke-linecap="round" stroke-linejoin="round"/>
<path d="M354.768 151.056C360.622 151.056 365.368 146.31 365.368 140.456C365.368 134.601 360.622 129.855 354.768 129.855C348.913 129.855 344.167 134.601 344.167 140.456C344.167 146.31 348.913 151.056 354.768 151.056Z" stroke="#E1E4E5" stroke-width="5.5" stroke-linecap="round" stroke-linejoin="round"/>
<path d="M225.071 151.056C230.925 151.056 235.671 146.31 235.671 140.456C235.671 134.601 230.925 129.855 225.071 129.855C219.216 129.855 214.47 134.601 214.47 140.456C214.47 146.31 219.216 151.056 225.071 151.056Z" stroke="#E1E4E5" stroke-width="5.5" stroke-linecap="round" stroke-linejoin="round"/>
<mask id="mask0_1004_10" style="mask-type:alpha" maskUnits="userSpaceOnUse" x="69" y="183" width="211" height="256">
<path d="M71 185.367H277.167V436.204H71V185.367Z" fill="white" stroke="white" stroke-width="4" stroke-linecap="round" stroke-linejoin="round"/>
</mask>
<g mask="url(#mask0_1004_10)">
<path d="M233.409 367.861H115.189C111.069 367.861 107.729 371.201 107.729 375.321V375.322C107.729 379.442 111.069 382.782 115.189 382.782H233.409C237.529 382.782 240.869 379.442 240.869 375.322V375.321C240.869 371.201 237.529 367.861 233.409 367.861Z" fill="white" stroke="#E1E4E5" stroke-width="4" stroke-linecap="round" stroke-linejoin="round"/>
<path d="M232.261 336.872H116.337C111.583 336.872 107.729 340.726 107.729 345.48C107.729 350.234 111.583 354.088 116.337 354.088H232.261C237.015 354.088 240.869 350.234 240.869 345.48C240.869 340.726 237.015 336.872 232.261 336.872Z" fill="white" stroke="#E1E4E5" stroke-width="4" stroke-linecap="round" stroke-linejoin="round"/>
<path d="M232.261 396.555H116.337C111.583 396.555 107.729 400.409 107.729 405.163C107.729 409.917 111.583 413.771 116.337 413.771H232.261C237.015 413.771 240.869 409.917 240.869 405.163C240.869 400.409 237.015 396.555 232.261 396.555Z" fill="white" stroke="#E1E4E5" stroke-width="4" stroke-linecap="round" stroke-linejoin="round"/>
<path d="M132.405 202.584H96.8252C93.3386 202.584 90.5122 205.41 90.5122 208.896C90.5122 212.383 93.3386 215.209 96.8252 215.209H132.405C135.892 215.209 138.718 212.383 138.718 208.896C138.718 205.41 135.892 202.584 132.405 202.584Z" fill="white" stroke="#E1E4E5" stroke-width="4" stroke-linecap="round" stroke-linejoin="round"/>
<path fill-rule="evenodd" clip-rule="evenodd" d="M174.221 228.982C198.019 228.982 217.31 248.274 217.31 272.071C217.31 295.869 198.019 315.16 174.221 315.16C150.424 315.16 131.132 295.869 131.132 272.071C131.132 248.274 150.424 228.982 174.221 228.982V228.982ZM174.513 252.176C163.364 252.176 154.326 261.214 154.326 272.363C154.326 283.512 163.364 292.55 174.513 292.55C185.662 292.55 194.7 283.512 194.7 272.363C194.7 261.214 185.662 252.176 174.513 252.176Z" fill="#F3BA21"/>
</g>
</g>
<defs>
<clipPath id="clip0_1004_10">
<rect width="900" height="600" fill="white"/>
</clipPath>
</defs>
</svg>
