<svg width="649" height="487" viewBox="0 0 649 487" fill="none" xmlns="http://www.w3.org/2000/svg">
<path opacity="0.3" d="M177.632 81.8809C120.617 95.5169 75.268 128.682 67.2204 190.758C60.4383 243.045 67.4313 335.673 162.802 352.133C348.383 384.178 493.419 399.389 550.579 310.268C603.051 228.484 599.06 106.215 495.106 83.7965C421.591 67.9365 299.806 52.6609 177.632 81.8809Z" fill="#E6E6E6"/>
<path opacity="0.45" d="M324.5 432.472C450.659 432.472 552.932 421.432 552.932 407.814C552.932 394.195 450.659 383.155 324.5 383.155C198.341 383.155 96.0684 394.195 96.0684 407.814C96.0684 421.432 198.341 432.472 324.5 432.472Z" fill="#E6E6E6"/>
<path opacity="0.58" d="M153.829 347.182C153.829 347.182 139.827 343.416 136.728 330.397C136.728 330.397 158.388 325.917 159.102 348.254L153.829 347.182Z" fill="#68E1FD"/>
<path opacity="0.73" d="M155.533 345.77C155.533 345.77 145.701 330.348 154.235 315.852C154.235 315.852 170.768 326.258 163.532 345.77H155.533Z" fill="#68E1FD"/>
<path d="M158.064 345.77C158.064 345.77 163.159 329.423 178.751 326.29C178.751 326.29 181.72 336.874 168.724 345.77H158.064Z" fill="#68E1FD"/>
<path d="M147.907 345.462L150.828 364.86H168.691L171.239 345.462H147.907Z" fill="#24285B"/>
<path opacity="0.58" d="M153.829 347.182C153.829 347.182 139.827 343.416 136.728 330.397C136.728 330.397 158.388 325.917 159.102 348.254L153.829 347.182Z" fill="#68E1FD"/>
<path opacity="0.73" d="M155.533 345.77C155.533 345.77 145.701 330.348 154.235 315.852C154.235 315.852 170.768 326.258 163.532 345.77H155.533Z" fill="#68E1FD"/>
<path d="M158.064 345.77C158.064 345.77 163.159 329.423 178.751 326.29C178.751 326.29 181.72 336.874 168.724 345.77H158.064Z" fill="#68E1FD"/>
<path d="M147.907 345.462L150.828 364.86H168.691L171.239 345.462H147.907Z" fill="#24285B"/>
<path d="M123.472 403.203H204.013V383.886H123.472V403.203Z" fill="#CCCCCC"/>
<path opacity="0.43" d="M141.06 384.308H221.601V364.99H141.06V384.308Z" fill="#E6E6E6"/>
<path d="M473.089 54.544H181.817V403.22H473.089V54.544Z" fill="#E6E6E6"/>
<path opacity="0.12" d="M369.005 68.1638H314.521V76.1181H369.005V68.1638Z" fill="black"/>
<path d="M294.792 81.881C299.694 81.881 303.667 77.9054 303.667 73.0013C303.667 68.0973 299.694 64.1217 294.792 64.1217C289.891 64.1217 285.917 68.0973 285.917 73.0013C285.917 77.9054 289.891 81.881 294.792 81.881Z" fill="white"/>
<path opacity="0.08" d="M446.301 95.7117H208.605V369.178H446.301V95.7117Z" fill="black"/>
<g opacity="0.12">
<path opacity="0.12" d="M265.555 287.184H232.78V344.699H265.555V287.184Z" fill="black"/>
<path opacity="0.12" d="M318.984 266.146H286.209V344.699H318.984V266.146Z" fill="black"/>
<path opacity="0.12" d="M372.413 232.445H339.638V344.699H372.413V232.445Z" fill="black"/>
<path opacity="0.12" d="M425.825 201.78H393.051V344.699H425.825V201.78Z" fill="black"/>
</g>
<path opacity="0.12" d="M327.453 396.694C333.215 396.694 337.886 392.021 337.886 386.256C337.886 380.491 333.215 375.818 327.453 375.818C321.691 375.818 317.021 380.491 317.021 386.256C317.021 392.021 321.691 396.694 327.453 396.694Z" fill="black"/>
<path opacity="0.08" d="M379.665 287.492C379.665 287.492 338.405 296.745 322.196 325.446C305.987 354.146 372.494 403.674 372.494 403.674L418.492 403.837L429.103 355.737L405.122 321.517L379.665 287.492Z" fill="black"/>
<path d="M463.808 282.46C463.808 282.46 517.708 276.746 515.728 305.284C513.749 333.822 483.473 394.567 483.473 394.567H417.21C417.21 394.567 366.912 317.459 391.412 292.655C415.912 267.85 421.428 289.132 463.808 282.46Z" fill="#68E1FD"/>
<path d="M483.521 403.837L443.218 414.713L407.474 396.548L402.039 386.873H438.075H495.414L483.521 403.837Z" fill="#24285B"/>
<path d="M489.801 313.303C484.755 296.404 494.295 277.947 512.337 291.47C524.7 300.739 539.384 330.283 540.13 357.637C541.883 420.492 464.814 352.864 455.241 316.858L464.733 311.258C464.733 311.258 480.698 341.419 498.124 347.945C510.682 352.685 497.264 338.286 489.801 313.303Z" fill="#68E1FD"/>
<path opacity="0.46" d="M489.801 313.303C484.755 296.404 494.295 277.947 512.337 291.47C524.7 300.739 539.384 330.283 540.13 357.637C541.883 420.492 464.814 352.864 455.241 316.858L464.733 311.258C464.733 311.258 480.698 341.419 498.124 347.945C510.682 352.685 497.264 338.286 489.801 313.303Z" fill="white"/>
<path d="M461.91 282.817C461.535 285.22 461.296 287.643 461.196 290.073C461.082 293.417 460.011 298.369 454.706 299.343C446.593 300.852 444.419 287.979 444.419 287.979C444.419 287.979 439.308 275.934 448.102 274.295C456.069 272.834 463.532 271.762 461.91 282.817Z" fill="#F4A28C"/>
<path opacity="0.08" d="M430.612 300.934C430.612 300.934 435.658 311.518 422.921 333.205C415.636 345.624 438.075 366.338 438.075 366.338L493.922 371.938L483.505 394.551H417.21C417.21 394.551 388.118 347.215 385.879 322.849C383.64 298.482 430.612 300.934 430.612 300.934Z" fill="black"/>
<path d="M444.987 288.531C444.987 288.531 444.516 284.619 441.109 284.798C437.702 284.976 439.049 292.2 444.987 288.531Z" fill="#F4A28C"/>
<path d="M459.946 286.356C459.946 286.356 458.762 282.606 461.926 281.356C465.089 280.106 466.89 287.33 459.946 286.356Z" fill="#F4A28C"/>
<path d="M480.893 383.431L485.566 340.851H414.095L421.217 385.607L420.195 391.353L481.656 391.84L480.893 383.431Z" fill="#FFD200"/>
<path d="M452.126 403.837C452.126 403.837 438.562 408.577 443.218 414.713C447.875 420.849 455.241 410.655 455.241 410.655L452.126 403.837Z" fill="#68E1FD"/>
<path opacity="0.08" d="M414.095 340.9L428.34 359.568C436.612 370.491 447.782 378.872 460.579 383.756L481.672 391.873L424.998 391.418H420.212L421.234 385.672L414.095 340.9Z" fill="black"/>
<path d="M462.088 282.33C462.81 282.625 463.592 282.742 464.368 282.671C465.145 282.601 465.893 282.345 466.55 281.924C467.182 281.24 467.53 280.34 467.523 279.408C467.978 274.911 467.037 268.467 464.165 264.798C461.293 261.129 454.852 261.422 450.763 262.038C448.653 262.272 446.606 262.9 444.727 263.889C442.585 265.274 440.894 267.254 439.86 269.587C437.264 275.074 436.891 283.872 443.77 285.82C453.748 288.629 458.924 277.704 458.924 277.704C459.557 279.223 460.404 280.644 461.439 281.924C461.632 282.093 461.851 282.23 462.088 282.33Z" fill="#24285B"/>
<path d="M451.704 401.467C451.704 401.467 506.528 373.464 511.201 388.35C515.874 403.236 478.086 411.905 453.7 412.797L451.704 401.467Z" fill="#24285B"/>
<path d="M449.124 369.909C452.502 369.909 455.241 367.169 455.241 363.789C455.241 360.409 452.502 357.669 449.124 357.669C445.746 357.669 443.007 360.409 443.007 363.789C443.007 367.169 445.746 369.909 449.124 369.909Z" fill="white"/>
<path d="M438.383 403.658C438.383 403.658 394.673 360.315 385.701 373.091C376.728 385.866 410.038 405.557 433.045 413.853L438.383 403.658Z" fill="#24285B"/>
<path d="M436.68 406.921C436.68 406.921 449.66 418.463 442.131 421.872C434.603 425.281 433.045 413.853 433.045 413.853L436.68 406.921Z" fill="#68E1FD"/>
<path d="M430.611 300.934C431.098 296.063 429.639 291.198 426.554 287.4C423.469 283.602 419.007 281.178 414.143 280.658C404.262 279.603 391.266 280.252 379.714 287.492C357.307 301.55 332.515 312.768 338.632 338.238C344.749 363.708 389.222 374.406 389.222 374.406L395.144 364.666C395.144 364.666 355.944 351.419 363.083 330.705C369.508 312.086 426.393 343.286 430.611 300.934Z" fill="#68E1FD"/>
<path opacity="0.46" d="M430.611 300.934C431.098 296.063 429.639 291.198 426.554 287.4C423.469 283.602 419.007 281.178 414.143 280.658C404.262 279.603 391.266 280.252 379.714 287.492C357.307 301.55 332.515 312.768 338.632 338.238C344.749 363.708 389.222 374.406 389.222 374.406L395.144 364.666C395.144 364.666 355.944 351.419 363.083 330.705C369.508 312.086 426.393 343.286 430.611 300.934Z" fill="white"/>
<path d="M394.17 366.338C394.17 366.338 406.533 374.714 402.039 377.019C397.545 379.324 389.968 373.188 389.968 373.188L394.17 366.338Z" fill="#F4A28C"/>
<path d="M456.782 289.57C456.555 288.371 455.996 287.261 455.167 286.366C454.338 285.47 453.274 284.827 452.097 284.509C450.919 284.191 449.676 284.211 448.51 284.568C447.343 284.924 446.301 285.602 445.502 286.524C444.703 287.446 444.18 288.574 443.993 289.78C443.805 290.986 443.961 292.22 444.442 293.341C444.924 294.462 445.711 295.425 446.714 296.119C447.717 296.813 448.896 297.21 450.114 297.265L452.937 312.053L455.857 311.501L453.034 296.713C454.373 296.12 455.471 295.091 456.151 293.795C456.832 292.498 457.054 291.009 456.782 289.57ZM451.071 294.44C450.365 294.575 449.635 294.498 448.973 294.217C448.311 293.937 447.747 293.467 447.352 292.866C446.957 292.264 446.749 291.56 446.755 290.841C446.76 290.121 446.979 289.42 447.383 288.825C447.787 288.23 448.358 287.768 449.024 287.498C449.691 287.228 450.422 287.162 451.126 287.308C451.83 287.453 452.475 287.805 452.979 288.317C453.483 288.83 453.824 289.481 453.959 290.187C454.112 291.124 453.894 292.083 453.352 292.862C452.81 293.64 451.986 294.177 451.055 294.359L451.071 294.44Z" fill="#24285B"/>
<path d="M463.061 312.281C463.061 312.281 458.632 301.404 452.564 302.297C446.496 303.19 455.922 316.55 455.922 316.55L463.061 312.281Z" fill="#F4A28C"/>
<path opacity="0.46" d="M309.784 214.637H263.267V222.478H309.784V214.637Z" fill="white"/>
<path opacity="0.46" d="M309.784 235.286H263.267V243.127H309.784V235.286Z" fill="white"/>
<path d="M248.778 214.637H235.052V222.478H248.778V214.637Z" fill="#68E1FD"/>
<path d="M248.778 235.286H235.052V243.127H248.778V235.286Z" fill="#FFD200"/>
<path d="M367.95 152.999C367.971 163.404 363.997 173.419 356.849 180.977C349.701 188.534 339.925 193.055 329.54 193.608C319.156 194.16 308.956 190.7 301.047 183.944C293.139 177.187 288.126 167.649 287.045 157.301C285.964 146.953 288.897 136.584 295.237 128.337C301.578 120.09 310.842 114.595 321.117 112.986C331.391 111.377 341.891 113.779 350.446 119.693C359.002 125.608 364.96 134.585 367.09 144.769C367.301 145.873 367.48 146.977 367.642 148.016C367.845 149.669 367.948 151.333 367.95 152.999Z" fill="#68E1FD"/>
<path d="M327.453 112.497V153.08L367.107 144.834C367.107 144.834 361.574 112.237 327.453 112.497Z" fill="#FFD200"/>
<path opacity="0.46" d="M367.95 152.999C367.918 160.315 365.91 167.487 362.139 173.754C358.367 180.022 352.972 185.153 346.525 188.605C340.077 192.057 332.817 193.7 325.513 193.362C318.208 193.024 311.131 190.716 305.03 186.683L327.534 152.999L367.172 144.753C367.382 145.856 367.561 146.96 367.723 147.999C367.9 149.66 367.976 151.329 367.95 152.999Z" fill="white"/>
<path opacity="0.08" d="M269.043 115.273H181.817V190.758H269.043V115.273Z" fill="black"/>
<path d="M261.19 106.864H169.178V182.349H261.19V106.864Z" fill="#24285B"/>
<path d="M217.107 119.542C218.47 119.542 218.892 120.013 218.892 121.377V124.282C224.343 125.045 227.475 127.773 229.795 132.513C230.509 133.941 230.217 134.72 228.61 135.418L225.706 136.733C224.343 137.383 223.694 137.091 222.915 135.662C222.309 134.188 221.246 132.949 219.881 132.127C218.516 131.306 216.923 130.946 215.338 131.1C210.292 131.1 207.988 132.578 207.988 135.97C208.099 137.007 208.568 137.971 209.315 138.698C210.062 139.424 211.039 139.866 212.077 139.948C213.483 140.26 214.909 140.477 216.344 140.597C219.036 140.76 221.692 141.307 224.23 142.22C225.498 142.637 226.68 143.28 227.718 144.12C228.769 145.226 229.588 146.531 230.129 147.958C230.669 149.385 230.92 150.906 230.866 152.431C230.866 158.924 226.534 163.275 218.892 164.395V167.479C218.892 168.843 218.47 169.33 217.107 169.33H213.862C212.499 169.33 212.028 168.843 212.028 167.479V164.46C209.374 164.28 206.833 163.317 204.725 161.693C202.617 160.07 201.037 157.858 200.184 155.337C200.054 155.072 199.987 154.78 199.988 154.485C199.989 154.19 200.058 153.899 200.19 153.635C200.322 153.371 200.513 153.141 200.748 152.963C200.984 152.785 201.257 152.664 201.547 152.61L204.451 151.538C205.928 151.002 206.577 151.36 207.226 152.837C208.545 156.159 211.212 157.82 215.225 157.82C220.676 157.82 223.337 156.1 223.337 152.61C223.385 151.799 223.16 150.996 222.698 150.328C222.237 149.66 221.565 149.166 220.79 148.925C218.924 148.237 216.967 147.832 214.981 147.723C212.26 147.552 209.58 146.972 207.031 146.003C205.777 145.558 204.612 144.892 203.591 144.038C202.516 142.985 201.672 141.72 201.114 140.322C200.555 138.925 200.294 137.426 200.346 135.922C200.346 129.526 204.386 125.256 211.963 124.25V121.377C211.963 120.013 212.434 119.542 213.797 119.542H217.107Z" fill="white"/>
<path opacity="0.46" d="M425.841 118.276H384.711V126.101H425.841V118.276Z" fill="white"/>
<path opacity="0.46" d="M425.841 135.386H384.711V143.21H425.841V135.386Z" fill="white"/>
<path opacity="0.46" d="M425.841 152.496H384.711V160.32H425.841V152.496Z" fill="white"/>
<path opacity="0.46" d="M425.841 169.606H402.218V177.43H425.841V169.606Z" fill="white"/>
</svg>
