<svg width="48" height="48" viewBox="0 0 48 48" fill="none" xmlns="http://www.w3.org/2000/svg">
<path fill-rule="evenodd" clip-rule="evenodd" d="M24.0398 24.96H40.3598C40.89 24.96 41.3198 25.3898 41.3198 25.92C41.3198 35.9937 33.1535 44.16 23.0798 44.16C13.0062 44.16 4.83984 35.9937 4.83984 25.92C4.83984 15.8463 13.0062 7.67999 23.0798 7.67999C23.61 7.67999 24.0398 8.1098 24.0398 8.63999V24.96Z" fill="#034935"/>
<path d="M45.1599 20.16C45.1599 20.6902 44.7301 21.12 44.1999 21.12H28.8399C28.3097 21.12 27.8799 20.6902 27.8799 20.16V4.8C27.8799 4.2698 28.3097 3.84 28.8399 3.84C37.8532 3.84 45.1599 11.1467 45.1599 20.16Z" fill="#076537" fill-opacity="0.6"/>
</svg>
