<svg width="971" height="731" viewBox="0 0 971 731" fill="none" xmlns="http://www.w3.org/2000/svg">
<g clip-path="url(#clip0_703_75)">
<path d="M36.0559 728.921L0.155339 294.859C-0.75582 283.804 2.36273 272.79 8.94855 263.799L188.073 19.2928C192.859 12.757 199.284 7.55953 206.719 4.20897C214.154 0.859165 222.343 -0.529361 230.485 0.180977L843.69 53.5087C853.393 54.3522 862.595 58.1379 870.039 64.3455C877.475 70.5531 882.782 78.879 885.23 88.1807L969.486 408.043C971.555 415.906 971.502 424.169 969.334 432.007L886.89 730.035L36.0559 728.921Z" fill="#F4F4F4"/>
<path d="M644.243 278.243C673.2 268.429 688.611 237.317 678.658 208.752C668.712 180.187 637.17 164.986 608.212 174.799C579.253 184.612 563.842 215.724 573.791 244.29C583.739 272.854 615.28 288.056 644.243 278.243Z" fill="#DADDDF"/>
<path opacity="0.05" d="M644.243 278.243C673.2 268.429 688.611 237.317 678.658 208.752C668.712 180.187 637.17 164.986 608.212 174.799C579.253 184.612 563.842 215.724 573.791 244.29C583.739 272.854 615.28 288.056 644.243 278.243Z" fill="black"/>
<path d="M625.947 280.478C656.485 278.224 679.386 251.98 677.096 221.861C674.815 191.741 648.208 169.152 617.672 171.406C587.136 173.66 564.235 199.904 566.521 230.023C568.806 260.143 595.412 282.732 625.947 280.478Z" fill="#DADDDF"/>
<path opacity="0.4" d="M625.947 280.478C656.485 278.224 679.386 251.98 677.096 221.861C674.815 191.741 648.208 169.152 617.672 171.406C587.136 173.66 564.235 199.904 566.521 230.023C568.806 260.143 595.412 282.732 625.947 280.478Z" fill="white"/>
<path d="M644.311 263.699C665.498 251.444 672.593 224.57 660.177 203.674C647.753 182.779 620.505 175.774 599.322 188.028C578.138 200.283 571.036 227.157 583.46 248.053C595.883 268.948 623.127 275.953 644.311 263.699Z" fill="#DADDDF"/>
<path opacity="0.05" d="M579.712 224.042C580.2 218.303 581.83 212.713 584.508 207.595C587.186 202.476 590.86 197.928 595.319 194.21C599.78 190.492 604.938 187.677 610.501 185.925C616.064 184.174 621.922 183.52 627.741 184.002C636.906 184.749 646.1 189.116 652.756 194.402C648.579 190.316 643.614 187.089 638.163 184.909C632.706 182.727 626.866 181.637 620.982 181.699C615.096 181.762 609.282 182.976 603.877 185.273C598.471 187.569 593.582 190.901 589.492 195.075C585.402 199.249 582.192 204.183 580.051 209.591C577.909 214.998 576.877 220.771 577.014 226.575C577.151 232.379 578.456 238.098 580.851 243.401C583.247 248.703 586.686 253.484 590.969 257.466C586.876 252.62 583.89 246.96 582.214 240.873C580.735 235.841 579.212 229.568 579.712 224.042Z" fill="black"/>
<path opacity="0.08" d="M616.552 255.947L617.083 249.674C609.927 248.754 606.538 246.04 607.266 237.508C607.41 235.673 607.704 233.853 608.145 232.065L617.242 232.812C617.063 233.631 616.936 234.46 616.863 235.295C616.552 239.033 616.613 241.112 620.289 241.419C623.966 241.725 624.398 240.462 624.799 235.714C625.004 233.381 625.072 232.573 623.859 231.339C621.381 228.618 614.831 226.375 611.837 223.862C609.146 221.694 608.721 218.905 609.366 211.413C610.124 202.799 612.951 200.114 621.312 200.406L621.737 195.419L626.876 195.845L626.459 200.832C634.1 201.789 636.572 204.668 635.92 212.317C635.78 213.96 635.526 215.592 635.162 217.2L626.179 216.452C626.333 215.546 626.44 214.633 626.497 213.716C626.785 210.336 626.437 208.609 623.01 208.324C620.069 208.078 619.175 208.975 618.826 213.005C618.47 217.192 618.682 217.611 621.358 219.047C624.261 220.669 627.119 221.798 629.628 223.219C633.153 225.298 635.533 226.307 634.828 234.599C633.835 246.271 631.288 250.115 622.252 250.018L621.714 256.373L616.552 255.947Z" fill="black"/>
<path d="M131.247 390.436C153.756 382.808 165.735 358.626 158.002 336.423C150.269 314.22 125.753 302.405 103.244 310.032C80.7347 317.66 68.7562 341.843 76.4897 364.045C84.2224 386.248 108.738 398.064 131.247 390.436Z" fill="#DADDDF"/>
<path opacity="0.05" d="M131.247 390.436C153.756 382.808 165.735 358.626 158.002 336.423C150.269 314.22 125.753 302.405 103.244 310.032C80.7347 317.66 68.7562 341.843 76.4897 364.045C84.2224 386.248 108.738 398.064 131.247 390.436Z" fill="black"/>
<path d="M117.005 392.136C140.739 390.384 158.54 369.985 156.764 346.574C154.987 323.163 134.307 305.605 110.573 307.357C86.8393 309.109 69.0383 329.507 70.8151 352.919C72.5912 376.33 93.2712 393.888 117.005 392.136Z" fill="#DADDDF"/>
<path opacity="0.4" d="M117.005 392.136C140.739 390.384 158.54 369.985 156.764 346.574C154.987 323.163 134.307 305.605 110.573 307.357C86.8393 309.109 69.0383 329.507 70.8151 352.919C72.5912 376.33 93.2712 393.888 117.005 392.136Z" fill="white"/>
<path d="M131.303 379.116C147.766 369.592 153.286 348.706 143.631 332.466C133.975 316.226 112.801 310.782 96.3375 320.306C79.8737 329.83 74.3544 350.716 84.0095 366.956C93.6646 383.196 114.839 388.641 131.303 379.116Z" fill="#DADDDF"/>
<path opacity="0.05" d="M81.0519 348.285C81.8198 339.275 86.1838 330.935 93.185 325.099C100.186 319.263 109.251 316.409 118.385 317.165C125.511 317.755 132.659 321.143 137.836 325.248C134.573 322.137 130.72 319.691 126.499 318.049C122.277 316.408 117.769 315.603 113.233 315.679C108.696 315.756 104.219 316.713 100.056 318.497C95.895 320.281 92.1298 322.855 88.9771 326.074C85.8237 329.292 83.3442 333.092 81.6795 337.256C80.0156 341.42 79.1985 345.867 79.2766 350.342C79.3546 354.817 80.3249 359.234 82.1328 363.339C83.9415 367.444 86.5514 371.158 89.8148 374.268C86.6295 370.501 84.3023 366.102 82.9925 361.37C81.8706 357.46 80.688 352.584 81.0519 348.285Z" fill="black"/>
<path opacity="0.08" d="M109.728 373.086L110.137 368.21C104.581 367.463 101.943 365.384 102.512 358.752C102.622 357.325 102.85 355.91 103.194 354.52L110.236 355.103C110.096 355.739 109.996 356.384 109.94 357.032C109.698 359.918 109.751 361.518 112.601 361.795C115.451 362.072 115.8 361.047 116.111 357.361C116.262 355.544 116.315 354.916 115.353 353.959C113.427 351.843 108.333 350.101 106.014 348.141C103.922 346.452 103.588 344.283 104.088 338.466C104.657 331.736 106.878 329.688 113.374 329.904L113.708 326.031L117.703 326.36L117.377 330.241C123.32 330.989 125.238 333.232 124.73 339.169C124.626 340.444 124.433 341.711 124.154 342.96L117.172 342.384C117.278 341.823 117.331 341.203 117.415 340.26C117.642 337.636 117.369 336.29 114.708 336.066C112.434 335.879 111.722 336.574 111.456 339.707C111.184 342.96 111.343 343.289 113.42 344.403C115.694 345.667 117.9 346.541 119.855 347.648C122.592 349.263 124.442 350.048 123.896 356.494C123.138 365.563 121.144 368.554 114.117 368.457L113.7 373.4L109.728 373.086Z" fill="black"/>
<path d="M734.654 173.753C748.95 168.908 756.561 153.547 751.649 139.445C746.737 125.342 731.159 117.837 716.863 122.682C702.566 127.527 694.956 142.887 699.868 156.99C704.78 171.093 720.357 178.598 734.654 173.753Z" fill="#DADDDF"/>
<path opacity="0.05" d="M734.654 173.753C748.95 168.908 756.561 153.547 751.649 139.445C746.737 125.342 731.159 117.837 716.863 122.682C702.566 127.527 694.956 142.887 699.868 156.99C704.78 171.093 720.357 178.598 734.654 173.753Z" fill="black"/>
<path d="M725.626 174.912C740.696 173.799 752.006 160.842 750.876 145.972C749.747 131.101 736.61 119.949 721.54 121.061C706.463 122.174 695.153 135.131 696.282 150.002C697.412 164.872 710.549 176.024 725.626 174.912Z" fill="#DADDDF"/>
<path opacity="0.4" d="M725.626 174.912C740.696 173.799 752.006 160.842 750.876 145.972C749.747 131.101 736.61 119.949 721.54 121.061C706.463 122.174 695.153 135.131 696.282 150.002C697.412 164.872 710.549 176.024 725.626 174.912Z" fill="white"/>
<path d="M734.684 166.578C745.145 160.528 748.647 147.261 742.515 136.945C736.382 126.629 722.935 123.17 712.474 129.22C702.013 135.27 698.511 148.538 704.643 158.854C710.776 169.17 724.231 172.628 734.684 166.578Z" fill="#DADDDF"/>
<path opacity="0.05" d="M702.786 147.019C703.279 141.299 706.053 136.005 710.503 132.299C714.945 128.594 720.698 126.777 726.497 127.249C731.03 127.756 735.321 129.537 738.853 132.379C736.822 130.218 734.366 128.489 731.629 127.297C728.9 126.104 725.952 125.475 722.965 125.445C719.971 125.415 717.014 125.986 714.255 127.124C711.496 128.262 709.009 129.942 706.932 132.061C704.855 134.181 703.241 136.695 702.18 139.452C701.126 142.208 700.648 145.148 700.777 148.093C700.914 151.037 701.649 153.924 702.953 156.576C704.257 159.229 706.091 161.592 708.35 163.521C706.326 161.12 704.855 158.314 704.037 155.296C703.271 152.844 702.551 149.726 702.786 147.019Z" fill="black"/>
<path opacity="0.08" d="M720.986 162.767L721.252 159.672C717.719 159.223 716.044 157.884 716.4 153.69C716.468 152.785 716.613 151.887 716.832 151.005L721.305 151.372C721.221 151.777 721.161 152.186 721.123 152.598C720.971 154.43 721.002 155.469 722.813 155.589C724.625 155.709 724.845 155.118 725.042 152.77C725.14 151.619 725.178 151.222 724.58 150.617C723.351 149.271 720.115 148.164 718.644 146.915C717.31 145.846 717.128 144.47 717.416 140.769C717.78 136.522 719.19 135.191 723.321 135.333L723.533 132.873L726.065 133.082L725.861 135.542C729.651 136.021 730.856 137.442 730.53 141.218C730.462 142.03 730.341 142.836 730.166 143.633L725.732 143.259C725.808 142.813 725.861 142.364 725.883 141.913C726.027 140.246 725.883 139.386 724.163 139.251C722.715 139.132 722.267 139.573 722.101 141.562C721.934 143.551 722.033 143.805 723.351 144.553C724.784 145.353 726.194 145.913 727.437 146.616C729.173 147.641 730.348 148.112 730 152.232C729.507 157.997 728.256 159.896 723.791 159.843L723.526 162.984L720.986 162.767Z" fill="black"/>
<path d="M916.067 731H11.7289C11.4272 731 11.1376 730.88 10.9246 730.671C10.7116 730.462 10.5918 730.178 10.5918 729.878C10.5918 729.579 10.7116 729.295 10.9246 729.086C11.1376 728.876 11.4272 728.757 11.7289 728.757H916.067C916.37 728.757 916.659 728.876 916.871 729.086C917.083 729.295 917.204 729.579 917.204 729.878C917.204 730.178 917.083 730.462 916.871 730.671C916.659 730.88 916.37 731 916.067 731Z" fill="#B2B6BB"/>
<path d="M471.138 710.124H724.974C730.379 710.124 735.556 712.24 739.377 716.008C743.197 719.777 745.342 724.884 745.342 730.215H453.688V727.344C453.685 725.086 454.134 722.842 455.01 720.756C455.885 718.663 457.171 716.763 458.792 715.163C460.412 713.563 462.337 712.299 464.456 711.432C466.574 710.565 468.845 710.124 471.138 710.124Z" fill="#21252B"/>
<path d="M651.952 671.384H555.984V720.165H651.952V671.384Z" fill="#21252B"/>
<path d="M347.888 282.32H860.943C865.188 282.32 869.259 283.984 872.26 286.945C875.262 289.907 876.953 293.924 876.953 298.112V655.525C876.953 657.6 876.536 659.654 875.732 661.571C874.929 663.488 873.746 665.23 872.26 666.696C870.775 668.161 869.008 669.328 867.06 670.12C865.12 670.913 863.035 671.324 860.935 671.324H347.888C343.641 671.324 339.569 669.657 336.567 666.696C333.565 663.737 331.878 659.72 331.878 655.532V298.12C331.878 293.931 333.564 289.913 336.567 286.95C339.568 283.988 343.641 282.322 347.888 282.32Z" fill="#21252B"/>
<g opacity="0.3">
<path opacity="0.3" d="M347.888 282.32H860.943C865.188 282.32 869.259 283.984 872.26 286.945C875.262 289.907 876.953 293.924 876.953 298.112V655.525C876.953 657.6 876.536 659.654 875.732 661.571C874.929 663.488 873.746 665.23 872.26 666.696C870.775 668.161 869.008 669.328 867.06 670.12C865.12 670.913 863.035 671.324 860.935 671.324H347.888C343.641 671.324 339.569 669.657 336.567 666.696C333.565 663.737 331.878 659.72 331.878 655.532V298.12C331.878 293.931 333.564 289.913 336.567 286.95C339.568 283.988 343.641 282.322 347.888 282.32Z" fill="black"/>
</g>
<path d="M339.163 282.32H852.18C856.425 282.32 860.496 283.984 863.497 286.945C866.499 289.907 868.19 293.924 868.19 298.112V655.525C868.19 657.6 867.773 659.654 866.969 661.571C866.166 663.488 864.983 665.23 863.497 666.696C862.012 668.161 860.245 669.328 858.305 670.12C856.357 670.913 854.272 671.324 852.172 671.324H339.155C334.909 671.324 330.837 669.657 327.835 666.696C324.832 663.737 323.146 659.72 323.146 655.532V298.12C323.146 293.929 324.833 289.911 327.837 286.948C330.841 283.985 334.915 282.32 339.163 282.32Z" fill="#21252B"/>
<path opacity="0.3" d="M651.952 671.384H555.984V720.165H651.952V671.384Z" fill="black"/>
<path d="M643.652 671.384H547.684V720.165H643.652V671.384Z" fill="#21252B"/>
<path opacity="0.3" d="M643.515 671.384H547.51V679.99H643.515V671.384Z" fill="black"/>
<path d="M471.456 712.995H719.887C724.511 712.995 728.946 714.804 732.213 718.034C735.488 721.257 737.322 725.631 737.322 730.192H453.999C453.999 727.934 454.45 725.691 455.328 723.605C456.206 721.519 457.492 719.619 459.113 718.027C460.734 716.427 462.659 715.163 464.777 714.296C466.895 713.436 469.165 712.995 471.456 712.995Z" fill="#21252B"/>
<path d="M595.145 657.745C600.566 657.745 604.961 653.41 604.961 648.061C604.961 642.714 600.566 638.379 595.145 638.379C589.723 638.379 585.328 642.714 585.328 648.061C585.328 653.41 589.723 657.745 595.145 657.745Z" fill="#868A91"/>
<path opacity="0.2" d="M595.144 638.379C594.659 638.381 594.175 638.42 593.696 638.499C596.018 638.844 598.137 639.999 599.668 641.755C601.199 643.511 602.041 645.749 602.041 648.066C602.041 650.381 601.199 652.62 599.668 654.376C598.137 656.131 596.018 657.287 593.696 657.633C594.175 657.707 594.66 657.747 595.144 657.753C596.503 657.864 597.87 657.696 599.159 657.261C600.449 656.825 601.633 656.129 602.636 655.219C603.639 654.309 604.44 653.203 604.987 651.971C605.535 650.74 605.818 649.41 605.818 648.066C605.818 646.721 605.535 645.391 604.987 644.16C604.44 642.928 603.639 641.822 602.636 640.912C601.633 640.002 600.449 639.306 599.159 638.87C597.87 638.434 596.503 638.267 595.144 638.379Z" fill="black"/>
<path d="M343.522 293.289H847.814C849.762 293.289 851.634 294.053 853.014 295.413C854.393 296.773 855.167 298.618 855.167 300.542V625.466H336.177V300.549C336.176 299.597 336.366 298.654 336.734 297.773C337.103 296.893 337.644 296.093 338.325 295.419C339.008 294.744 339.818 294.21 340.709 293.844C341.602 293.479 342.557 293.29 343.522 293.289Z" fill="white"/>
<path d="M393.963 381.259H376.665V571.802H393.963V381.259Z" fill="#034935"/>
<path d="M427.354 445.974H410.056V571.801H427.354V445.974Z" fill="#034935"/>
<path d="M460.744 404.939H443.445V572.766H460.744V404.939Z" fill="#034935"/>
<path d="M494.136 388.617H476.837V571.802H494.136V388.617Z" fill="#034935"/>
<path d="M527.537 449.848H510.239V571.802H527.537V449.848Z" fill="#034935"/>
<path d="M560.926 473.767H543.627V571.808H560.926V473.767Z" fill="#034935"/>
<path d="M594.318 400.812H577.02V571.802H594.318V400.812Z" fill="#034935"/>
<path d="M627.71 431.64H610.412V571.801H627.71V431.64Z" fill="#034935"/>
<path d="M661.109 407.011H643.811V571.809H661.109V407.011Z" fill="#034935"/>
<path d="M694.501 459.531H677.202V571.802H694.501V459.531Z" fill="#034935"/>
<path d="M761.109 400.812H743.811V571.802H761.109V400.812Z" fill="#034935"/>
<path d="M832.024 510.825H814.725V569.334H832.024V510.825Z" fill="#034935"/>
<path d="M797.457 459.531H780.159V571.802H797.457V459.531Z" fill="#034935"/>
<path d="M727.892 438.168H710.594V571.802H727.892V438.168Z" fill="#034935"/>
<g opacity="0.2">
<path opacity="0.2" d="M393.234 380.541H375.936V571.083H393.234V380.541Z" fill="black"/>
</g>
<g opacity="0.2">
<path opacity="0.2" d="M426.626 445.257H409.328V571.084H426.626V445.257Z" fill="black"/>
</g>
<g opacity="0.2">
<path opacity="0.2" d="M460.018 404.221H442.72V572.048H460.018V404.221Z" fill="black"/>
</g>
<g opacity="0.2">
<path opacity="0.2" d="M493.408 387.898H476.109V571.083H493.408V387.898Z" fill="black"/>
</g>
<g opacity="0.2">
<path opacity="0.2" d="M526.809 449.13H509.51V571.084H526.809V449.13Z" fill="black"/>
</g>
<g opacity="0.2">
<path opacity="0.2" d="M560.2 473.05H542.902V571.092H560.2V473.05Z" fill="black"/>
</g>
<g opacity="0.2">
<path opacity="0.2" d="M593.589 400.094H576.291V571.084H593.589V400.094Z" fill="black"/>
</g>
<g opacity="0.2">
<path opacity="0.2" d="M626.982 430.923H609.683V571.084H626.982V430.923Z" fill="black"/>
</g>
<g opacity="0.2">
<path opacity="0.2" d="M660.381 406.294H643.083V571.092H660.381V406.294Z" fill="black"/>
</g>
<g opacity="0.2">
<path opacity="0.2" d="M693.773 458.812H676.475V571.083H693.773V458.812Z" fill="black"/>
</g>
<g opacity="0.2">
<path opacity="0.2" d="M760.382 400.094H743.083V571.084H760.382V400.094Z" fill="black"/>
</g>
<g opacity="0.2">
<path opacity="0.2" d="M831.296 510.108H813.998V568.617H831.296V510.108Z" fill="black"/>
</g>
<g opacity="0.2">
<path opacity="0.2" d="M796.73 458.812H779.431V571.083H796.73V458.812Z" fill="black"/>
</g>
<g opacity="0.2">
<path opacity="0.2" d="M727.165 437.451H709.866V571.085H727.165V437.451Z" fill="black"/>
</g>
<path d="M831.887 586.008H356.954V342.086C356.918 341.973 356.911 341.854 356.931 341.739C356.95 341.623 356.997 341.514 357.068 341.42C357.138 341.326 357.23 341.249 357.336 341.196C357.442 341.143 357.559 341.116 357.678 341.116C357.796 341.116 357.914 341.143 358.02 341.196C358.126 341.249 358.218 341.326 358.288 341.42C358.359 341.514 358.406 341.623 358.425 341.739C358.445 341.854 358.437 341.973 358.402 342.086V584.573H831.887C832.046 584.618 832.183 584.712 832.281 584.841C832.38 584.971 832.433 585.128 832.433 585.291C832.433 585.452 832.38 585.609 832.281 585.739C832.183 585.869 832.046 585.963 831.887 586.008Z" fill="black"/>
<path d="M387.496 431.761C389.342 429.389 391.402 427.186 393.651 425.181C394.803 424.209 395.925 423.192 397.131 422.295C397.729 421.839 398.321 421.368 398.927 420.919L400.815 419.655C405.794 416.239 411.131 413.359 416.733 411.064C427.973 406.329 440.151 404.155 452.361 404.701C464.583 405.452 476.417 409.221 486.776 415.663C488.11 416.41 489.308 417.322 490.566 418.167C491.834 419 493.059 419.895 494.235 420.852L497.783 423.693C498.904 424.703 500.004 425.742 501.118 426.766L502.786 428.307L504.347 429.952L507.463 433.249C508.448 434.386 509.396 435.56 510.366 436.718C511.336 437.877 512.337 439.014 513.193 440.255L515.869 443.897C516.301 444.51 516.779 445.1 517.181 445.736L518.416 447.628L523.306 455.195C524.913 457.707 526.58 460.234 528.149 462.792C529.719 465.349 531.273 467.921 532.811 470.493C538.929 480.819 544.902 491.213 551.535 501.15C558.168 511.087 565.415 520.733 574.162 528.898C578.508 532.999 583.345 536.562 588.565 539.508C593.772 542.426 599.466 544.401 605.378 545.341C611.296 546.221 617.329 546.008 623.169 544.712C626.095 544.076 628.971 543.231 631.773 542.185C634.579 541.131 637.322 539.923 639.99 538.566C645.312 535.798 650.383 532.584 655.151 528.958C659.82 525.216 664.073 521 667.848 516.381C675.504 507.177 681.872 496.985 688.262 486.846C694.652 476.707 701.012 466.485 708.221 456.84C711.799 451.994 715.619 447.329 719.675 442.865C723.73 438.391 728.089 434.197 732.721 430.31C741.976 422.492 752.498 416.256 763.846 411.864C775.216 407.604 787.155 405.01 799.292 404.163C811.397 403.32 823.549 403.659 835.586 405.172C823.549 403.771 811.405 403.552 799.322 404.514C787.254 405.469 775.391 408.164 764.111 412.515C752.877 416.946 742.469 423.193 733.312 430.998C728.733 434.883 724.428 439.072 720.425 443.538C716.415 447.998 712.64 452.655 709.108 457.49C701.998 467.136 695.683 477.335 689.316 487.504C682.948 497.673 676.573 507.894 668.849 517.211C665.021 521.908 660.7 526.196 655.962 530.005C654.749 530.932 653.536 531.859 652.278 532.697L650.398 533.99C649.769 534.409 649.124 534.805 648.488 535.216C645.941 536.876 643.28 538.357 640.589 539.777C637.883 541.176 635.099 542.424 632.251 543.516C629.383 544.588 626.442 545.458 623.45 546.118C617.439 547.456 611.229 547.682 605.136 546.784C599.059 545.822 593.206 543.796 587.852 540.802C582.545 537.787 577.63 534.146 573.215 529.96C564.353 521.66 557.069 511.94 550.428 501.928C543.788 491.916 537.822 481.47 531.727 471.151C530.211 468.572 528.695 465.999 527.088 463.457C525.481 460.915 523.889 458.41 522.275 455.86L517.438 448.286L516.226 446.402C515.824 445.766 515.361 445.183 514.929 444.57L512.246 440.921C511.404 439.679 510.404 438.565 509.464 437.399C508.524 436.232 507.576 435.081 506.606 433.944L503.536 430.669L502.02 429.032L500.383 427.536C499.283 426.52 498.199 425.48 497.093 424.478L493.606 421.644C492.447 420.693 491.24 419.799 489.99 418.967C488.747 418.13 487.564 417.195 486.253 416.478C476.043 410.052 464.361 406.257 452.278 405.441C440.167 404.79 428.063 406.834 416.862 411.423C411.248 413.655 405.893 416.475 400.89 419.835L399.018 421.113C398.412 421.555 397.82 422.018 397.214 422.467C395.993 423.349 394.872 424.351 393.712 425.308C391.45 427.272 389.37 429.433 387.496 431.761Z" fill="black"/>
<path d="M485.67 418.121C487.45 418.121 488.892 416.698 488.892 414.943C488.892 413.188 487.45 411.765 485.67 411.765C483.891 411.765 482.448 413.188 482.448 414.943C482.448 416.698 483.891 418.121 485.67 418.121Z" fill="black"/>
<path d="M585.003 169.435H223.215V447.178H585.003V169.435Z" fill="#F4F4F4" stroke="#868A91" stroke-miterlimit="10"/>
<path d="M297.146 205.925H238.58V209.14H297.146V205.925Z" fill="#B2B6BB"/>
<path d="M267.522 213.448H238.58V216.663H267.522V213.448Z" fill="#B2B6BB"/>
<path d="M537.374 415.213V425.883H540.428V415.213H537.374Z" fill="#61656D"/>
<path d="M490.151 415.22V425.891H493.206V415.22H490.151Z" fill="#61656D"/>
<path d="M442.915 415.213V425.883H445.97V415.213H442.915Z" fill="#61656D"/>
<path d="M395.689 415.22V425.891H398.744V415.22H395.689Z" fill="#61656D"/>
<path d="M348.457 415.213V425.883H351.512V415.213H348.457Z" fill="#61656D"/>
<path d="M301.225 415.22V425.891H304.28V415.22H301.225Z" fill="#61656D"/>
<path d="M282.584 407.271H271.972V410.285H282.584V407.271Z" fill="#61656D"/>
<path d="M282.584 366.992H271.972V370.006H282.584V366.992Z" fill="#61656D"/>
<path d="M282.584 291.195H271.972V294.208H282.584V291.195Z" fill="#61656D"/>
<path d="M282.584 253.099H271.972V256.112H282.584V253.099Z" fill="#61656D"/>
<path d="M283.12 329.099H272.508V332.112H283.12V329.099Z" fill="#61656D"/>
<path d="M300.958 402.128V368.48L322.184 335.947L336.586 346.856L366.15 301.507L383.584 313.635L407.842 271.8L427.551 287.659L457.114 232.163L488.951 294.224L514.725 263.186L545.046 254.624V402.128H300.958Z" fill="#034935"/>
<path d="M300.958 402.128V368.48L322.184 335.947L336.586 346.856L366.15 301.507L383.584 313.635L407.842 271.8L427.551 287.659L457.114 232.163L488.951 294.224L514.725 263.186L545.046 254.624V402.128H300.958Z" fill="#034935"/>
<path d="M548.3 242.667H547.769H546.185L540.022 242.72L516.735 242.817L516.894 242.735L491.879 274.887L491.796 274.992H491.652L429.159 275.059L429.455 274.887L403.181 318.031L377.408 360.322L377.135 360.771L376.824 360.352C364.468 343.61 353.052 328.125 342.955 314.449H343.448L312.611 361.93L304.023 375.067L301.749 378.499C301.233 379.247 300.953 379.658 300.953 379.658C300.953 379.658 301.18 379.239 301.711 378.447C302.241 377.654 302.954 376.48 303.909 374.97L312.361 361.75L342.986 314.128L343.221 313.769L343.478 314.113L377.431 359.956H376.847C385.019 346.541 393.676 332.335 402.62 317.649L428.864 274.595L428.962 274.431H429.167L491.659 274.491L491.424 274.603L516.546 242.548L516.606 242.466H516.713L539.999 242.563L546.162 242.615H547.747C548.118 242.645 548.3 242.667 548.3 242.667Z" fill="black"/>
<path d="M353.445 325.12C353.461 325.59 353.335 326.055 353.082 326.454C352.83 326.853 352.461 327.169 352.025 327.361C351.589 327.552 351.105 327.61 350.635 327.529C350.165 327.447 349.731 327.229 349.387 326.902C349.044 326.575 348.807 326.155 348.708 325.694C348.609 325.233 348.651 324.754 348.829 324.317C349.008 323.881 349.315 323.507 349.71 323.244C350.106 322.98 350.572 322.839 351.049 322.839C351.674 322.829 352.276 323.063 352.725 323.491C353.174 323.919 353.433 324.504 353.445 325.12Z" fill="#263238"/>
<path d="M425.533 284.705C425.559 285.179 425.44 285.649 425.192 286.055C424.944 286.461 424.579 286.785 424.142 286.984C423.707 287.182 423.22 287.248 422.745 287.171C422.272 287.095 421.831 286.88 421.482 286.554C421.133 286.228 420.891 285.807 420.787 285.344C420.684 284.881 420.723 284.398 420.9 283.957C421.078 283.516 421.385 283.139 421.783 282.872C422.181 282.606 422.65 282.463 423.13 282.462C423.749 282.452 424.346 282.681 424.796 283.1C425.245 283.519 425.51 284.096 425.533 284.705Z" fill="#263238"/>
<path d="M479.174 277.055C480.496 277.055 481.569 276.035 481.569 274.775C481.569 273.516 480.496 272.494 479.174 272.494C477.851 272.494 476.778 273.516 476.778 274.775C476.778 276.035 477.851 277.055 479.174 277.055Z" fill="#263238"/>
<path d="M287.998 229.231V410.181H544.972" stroke="black" stroke-miterlimit="10" stroke-linecap="round"/>
<path d="M298.61 254.654H548.004" stroke="black" stroke-miterlimit="10" stroke-linecap="round"/>
<path d="M298.989 293.162H548.383" stroke="black" stroke-miterlimit="10" stroke-linecap="round"/>
<path d="M299.368 331.67H548.762" stroke="black" stroke-miterlimit="10" stroke-linecap="round"/>
<path d="M299.747 370.178H549.141" stroke="black" stroke-miterlimit="10" stroke-linecap="round"/>
<path d="M584.39 169.413H223.565V191.845H584.39V169.413Z" fill="#868A91"/>
<path d="M238.329 180.869C238.333 181.415 238.173 181.95 237.868 182.406C237.563 182.862 237.128 183.218 236.617 183.429C236.106 183.64 235.544 183.697 235 183.591C234.457 183.486 233.958 183.223 233.567 182.837C233.175 182.451 232.909 181.958 232.802 181.423C232.695 180.887 232.753 180.332 232.966 179.828C233.18 179.324 233.542 178.895 234.003 178.594C234.466 178.294 235.009 178.135 235.562 178.139C236.294 178.143 236.996 178.433 237.514 178.943C238.032 179.454 238.325 180.146 238.329 180.869Z" fill="white"/>
<path d="M247.941 180.869C247.942 181.414 247.779 181.947 247.474 182.401C247.168 182.854 246.732 183.208 246.222 183.417C245.712 183.626 245.15 183.682 244.608 183.575C244.066 183.47 243.569 183.208 243.179 182.822C242.788 182.437 242.522 181.946 242.415 181.412C242.307 180.877 242.363 180.323 242.575 179.82C242.788 179.317 243.146 178.887 243.606 178.585C244.066 178.284 244.606 178.124 245.159 178.125C245.896 178.125 246.604 178.414 247.126 178.928C247.647 179.443 247.941 180.141 247.941 180.869Z" fill="white"/>
<path d="M257.546 180.869C257.548 181.414 257.385 181.946 257.08 182.4C256.774 182.853 256.339 183.207 255.83 183.416C255.32 183.626 254.758 183.682 254.217 183.576C253.675 183.471 253.178 183.209 252.787 182.825C252.396 182.44 252.13 181.95 252.021 181.416C251.913 180.882 251.968 180.329 252.179 179.826C252.39 179.322 252.747 178.892 253.206 178.589C253.665 178.287 254.204 178.125 254.757 178.125C255.122 178.124 255.485 178.194 255.823 178.332C256.162 178.469 256.469 178.671 256.729 178.926C256.988 179.181 257.193 179.484 257.333 179.817C257.474 180.151 257.546 180.508 257.546 180.869Z" fill="white"/>
<path d="M194.122 705.069H101.308V716.689H194.122V705.069Z" fill="#61656D"/>
<path opacity="0.2" d="M118.778 705.069H101.124V716.689H118.778V705.069Z" fill="black"/>
<path opacity="0.2" d="M183.076 705.069H170.129V716.689H183.076V705.069Z" fill="white"/>
<path d="M194.122 681.83H101.308V693.449H194.122V681.83Z" fill="#61656D"/>
<path opacity="0.2" d="M118.778 681.83H101.124V693.449H118.778V681.83Z" fill="black"/>
<path opacity="0.2" d="M183.076 681.83H170.129V693.449H183.076V681.83Z" fill="white"/>
<path d="M194.122 646.963H101.308V658.583H194.122V646.963Z" fill="#61656D"/>
<path opacity="0.2" d="M118.778 646.963H101.124V658.583H118.778V646.963Z" fill="black"/>
<path opacity="0.2" d="M183.076 646.963H170.129V658.583H183.076V646.963Z" fill="white"/>
<path d="M205.172 716.688H112.358V728.308H205.172V716.688Z" fill="#61656D"/>
<path opacity="0.2" d="M130.475 716.045H112.82V727.665H130.475V716.045Z" fill="black"/>
<path opacity="0.2" d="M194.13 716.688H181.183V728.308H194.13V716.688Z" fill="white"/>
<path d="M205.172 670.202H112.358V681.822H205.172V670.202Z" fill="#61656D"/>
<path opacity="0.2" d="M130.475 670.202H112.82V681.822H130.475V670.202Z" fill="black"/>
<path opacity="0.2" d="M194.13 670.202H181.183V681.822H194.13V670.202Z" fill="white"/>
<path d="M205.172 658.582H112.358V670.202H205.172V658.582Z" fill="#61656D"/>
<path opacity="0.2" d="M130.475 658.582H112.82V670.202H130.475V658.582Z" fill="black"/>
<path opacity="0.2" d="M194.13 658.582H181.183V670.202H194.13V658.582Z" fill="white"/>
<path d="M205.172 693.449H112.358V705.069H205.172V693.449Z" fill="#61656D"/>
<path opacity="0.2" d="M130.475 693.449H112.82V705.069H130.475V693.449Z" fill="black"/>
<path opacity="0.2" d="M194.13 693.449H181.183V705.069H194.13V693.449Z" fill="white"/>
<g opacity="0.3">
<path opacity="0.3" d="M194.128 716.322H112.358V717.055H194.128V716.322Z" fill="black"/>
</g>
<g opacity="0.3">
<path opacity="0.3" d="M194.128 704.702H112.358V705.435H194.128V704.702Z" fill="black"/>
</g>
<g opacity="0.3">
<path opacity="0.3" d="M194.128 693.075H112.358V693.808H194.128V693.075Z" fill="black"/>
</g>
<g opacity="0.3">
<path opacity="0.3" d="M194.128 681.456H112.358V682.188H194.128V681.456Z" fill="black"/>
</g>
<g opacity="0.3">
<path opacity="0.3" d="M205.172 669.836H112.358V670.569H205.172V669.836Z" fill="black"/>
</g>
<g opacity="0.3">
<path opacity="0.3" d="M205.172 658.217H112.358V658.95H205.172V658.217Z" fill="black"/>
</g>
<path d="M101.625 726.342C123.195 719.029 134.674 695.857 127.264 674.576C119.853 653.303 96.3595 641.98 74.7888 649.29C53.2181 656.599 41.7392 679.773 49.1498 701.053C56.5603 722.326 80.0541 733.654 101.625 726.342Z" fill="#61656D"/>
<path opacity="0.2" d="M101.625 726.342C123.195 719.029 134.674 695.857 127.264 674.576C119.853 653.303 96.3595 641.98 74.7888 649.29C53.2181 656.599 41.7392 679.773 49.1498 701.053C56.5603 722.326 80.0541 733.654 101.625 726.342Z" fill="black"/>
<path d="M87.9316 727.979C110.676 726.297 127.734 706.751 126.032 684.319C124.33 661.881 104.512 645.055 81.7672 646.734C59.0231 648.413 41.965 667.959 43.6668 690.398C45.3693 712.83 65.1867 729.661 87.9316 727.979Z" fill="#61656D"/>
<path opacity="0.2" d="M87.9316 727.979C110.676 726.297 127.734 706.751 126.032 684.319C124.33 661.881 104.512 645.055 81.7672 646.734C59.0231 648.413 41.965 667.959 43.6668 690.398C45.3693 712.83 65.1867 729.661 87.9316 727.979Z" fill="white"/>
<path d="M101.675 715.5C117.455 706.37 122.747 686.346 113.491 670.778C104.236 655.215 83.9396 649.997 68.1588 659.126C52.3772 668.258 47.0869 688.275 56.3418 703.843C65.5966 719.41 85.8931 724.629 101.675 715.5Z" fill="#61656D"/>
<path opacity="0.2" d="M53.4981 685.957C54.2334 677.328 58.414 669.335 65.1204 663.74C71.8267 658.147 80.51 655.41 89.2623 656.13C96.0846 656.691 102.907 659.936 107.91 663.876C104.793 660.846 101.098 658.455 97.0382 656.842C92.9789 655.229 88.6354 654.425 84.2593 654.477C79.8831 654.53 75.5608 655.438 71.5417 657.148C67.5233 658.858 63.8886 661.337 60.8473 664.445C57.8053 667.548 55.4182 671.212 53.8226 675.234C52.2269 679.257 51.4552 683.549 51.5515 687.863C51.6478 692.178 52.6097 696.432 54.3835 700.38C56.1566 704.328 58.7051 707.887 61.882 710.856C58.8324 707.244 56.6106 703.027 55.3705 698.489C54.2789 694.75 53.1495 690.069 53.4981 685.957Z" fill="black"/>
<path d="M80.9605 709.72L81.3623 705.047C76.0561 704.366 73.509 702.347 74.0472 695.984C74.1541 694.616 74.3717 693.262 74.6992 691.931L81.4457 692.492C81.3145 693.105 81.2205 693.719 81.1652 694.339C80.9302 697.098 80.9833 698.676 83.7198 698.9C86.4563 699.125 86.7519 698.153 87.0855 694.646C87.2295 692.911 87.2826 692.313 86.3805 691.393C84.5309 689.367 79.6491 687.654 77.4205 685.815C75.4193 684.2 75.1009 682.121 75.5785 676.543C76.1243 670.128 78.2544 668.124 84.4854 668.318L84.7962 664.58L88.6319 664.901L88.3135 668.64C94.0063 669.387 95.8484 671.504 95.3632 677.201C95.2647 678.428 95.0797 679.639 94.8099 680.835L88.1164 680.282C88.2316 679.609 88.3105 678.929 88.3514 678.248C88.5637 675.728 88.3059 674.442 85.7589 674.233C83.5682 674.046 82.9011 674.719 82.6434 677.717C82.3781 680.835 82.5372 681.149 84.5233 682.204C86.6913 683.415 88.8214 684.252 90.6937 685.314C93.3165 686.862 95.0903 687.61 94.5597 693.786C93.8017 702.489 91.9217 705.346 85.198 705.278L84.7886 710.011L80.9605 709.72Z" fill="#F4F4F4"/>
<path d="M194.819 687.639C195.579 689.972 195.892 692.432 195.743 694.877L195.819 715.26C195.673 718.812 194.673 722.281 192.901 725.377L192.469 726.08C191.96 726.984 191.217 727.732 190.317 728.256C189.416 728.786 188.39 729.063 187.344 729.071H181.424C180.102 729.063 178.82 728.622 177.778 727.822C176.735 727.014 175.989 725.9 175.655 724.637C174.885 721.623 174.79 718.483 175.375 715.432L180.355 693.651C180.706 691.617 181.304 689.636 182.137 687.744L194.819 687.639Z" fill="#034935"/>
<path d="M274.897 639.785L276.109 677.799C276.109 681.388 277.034 685.179 278.459 687.078L295.697 716.658L291.71 722.072L276.109 714.415L262.215 689.68C262.283 685.463 261.79 682.951 261.078 677.238L254.164 635.284L274.897 639.785Z" fill="#FC9D9D"/>
<path opacity="0.15" d="M295.59 716.501C287.472 716.307 281.809 708.336 281.809 708.336L268.725 691.355C266.99 689.105 265.953 686.398 265.739 683.579L264.73 670.12C264.643 668.946 265 667.78 265.732 666.852C266.464 665.925 267.52 665.29 268.695 665.088L275.661 663.876L275.593 661.752H258.606L258.552 661.947L261.077 677.268C261.789 682.958 262.282 685.493 262.214 689.71L276.109 714.445L282.393 717.526L295.613 716.539L295.59 716.501Z" fill="black"/>
<path d="M303.786 721.653L295.599 716.733C292.688 717.204 289.7 716.913 286.937 715.896C284.174 714.871 281.733 713.152 279.855 710.901L262.117 689.681C258.908 696.44 257.768 703.977 258.835 711.365L261.404 728.929H263.466L264.035 710.871C264.042 710.58 264.141 710.295 264.318 710.064C264.493 709.824 264.738 709.652 265.019 709.563C265.3 709.465 265.603 709.465 265.887 709.548C266.17 709.63 266.421 709.794 266.605 710.026L277.429 723.096C278.945 724.936 280.856 726.424 283.024 727.441C285.192 728.465 287.564 728.996 289.967 729.003H306.856C307.162 729.003 307.463 728.929 307.732 728.787C308.002 728.645 308.231 728.443 308.4 728.188C308.569 727.934 308.672 727.65 308.7 727.351C308.729 727.052 308.681 726.745 308.562 726.469C307.655 724.323 305.946 722.596 303.786 721.653Z" fill="#034935"/>
<path d="M195.607 678.435C194.73 685.755 194.347 693.127 194.463 700.5L194.607 709.286C194.542 711.148 193.75 712.912 192.396 714.206C191.042 715.499 189.232 716.232 187.345 716.24H186.132C185.093 716.24 184.066 716.023 183.119 715.604C182.173 715.178 181.331 714.557 180.648 713.787C179.966 713.009 179.46 712.105 179.165 711.118C178.87 710.138 178.793 709.106 178.938 708.089L181 697.689C182.057 692.395 182.44 686.989 182.137 681.598L180.143 646.11L198.738 646.387L195.607 678.435Z" fill="#FC9D9D"/>
<path d="M264.408 392.782L266.993 423.207L268.509 439.508C270.358 460.1 271.569 480.715 272.14 501.352L276.498 661.709H257.729L222.86 437.055C222.751 436.319 222.372 435.647 221.795 435.168C221.218 434.688 220.483 434.434 219.729 434.453C218.936 434.46 218.174 434.759 217.594 435.291C217.013 435.824 216.655 436.552 216.591 437.332L198.527 661.709L180.076 661.567L171.958 495.572C170.442 464.915 173.254 428.733 177.393 406.66L183.457 393.201L264.408 392.782Z" fill="#21252B"/>
<path opacity="0.15" d="M177.39 409.665C173.251 431.738 170.454 464.952 171.955 495.586L180.073 661.581L185.728 661.626L182.416 545.549C182.006 531.223 181.453 516.901 180.755 502.585C179.944 485.985 179.33 454.73 183.788 425.472C184.728 419.341 189.92 417.71 196.197 417.494L206.157 417.157C207.156 417.124 208.111 416.752 208.863 416.104C209.615 415.455 210.116 414.57 210.281 413.598L212.184 400.079L180.392 400.707L177.39 409.665Z" fill="black"/>
<path opacity="0.15" d="M232.234 400.14L232.992 414.848C233.104 415.675 233.517 416.435 234.155 416.985C234.792 417.535 235.61 417.838 236.456 417.838H266.065L265.239 399.317L232.234 400.14Z" fill="black"/>
<path opacity="0.15" d="M197.168 661.642L197.1 663.466L188.838 664.961C188.231 665.088 187.686 665.409 187.296 665.888C186.907 666.359 186.696 666.95 186.7 667.563L184.85 688.716L182.296 706.146C182.371 709.308 182.083 713.526 185.502 716.12C183.682 716.045 181.959 715.29 180.678 714.012C179.396 712.74 178.65 711.028 178.589 709.234L179.878 701.801C180.711 696.896 182.364 692.829 182.364 687.086V683.811C182.152 680.82 180.999 661.731 180.999 661.731L197.168 661.642Z" fill="black"/>
<path d="M205.505 399.668L236.069 399.735C236.926 330.451 238.662 294.859 242.513 279.351L234.174 277.856L203.891 276.839L197.91 278.11C204.535 313.478 205.649 382.268 205.505 399.668Z" fill="white"/>
<path opacity="0.2" d="M209.715 295.532C205.569 332.32 205.652 382.687 205.508 399.698H211.853C214.839 354.131 214.688 326.563 209.715 295.532Z" fill="black"/>
<path d="M204.808 414.496C205.243 414.498 205.663 414.339 205.985 414.051C206.308 413.764 206.51 413.368 206.551 412.941L208.371 390.756C210.395 367.352 210.781 339.096 210.758 319.954C210.744 305.467 209.022 291.031 205.626 276.937L205.566 276.698L175.843 282.635C166.936 284.818 161.948 292.759 161.524 301.47L175.866 317.217C179.83 346.849 179.535 376.885 174.987 406.436L173.963 412.814C173.928 413.01 173.937 413.212 173.988 413.405C174.04 413.597 174.134 413.777 174.263 413.931C174.392 414.084 174.554 414.208 174.736 414.294C174.918 414.38 175.118 414.426 175.32 414.429H186.289L204.808 414.496Z" fill="#034935"/>
<path opacity="0.15" d="M185.745 350.76L182.182 308.431C182.154 308.354 182.103 308.286 182.035 308.239C181.967 308.192 181.886 308.166 181.803 308.166C181.719 308.166 181.638 308.192 181.571 308.239C181.503 308.286 181.452 308.354 181.424 308.431L181.037 317.479C180.721 316.557 180.336 315.66 179.885 314.795C179.386 313.847 178.797 312.948 178.126 312.11C177.468 311.256 176.669 310.518 175.761 309.927C176.913 311.714 177.899 313.494 178.862 315.318C179.362 316.223 179.809 317.15 180.294 318.07L180.954 319.326L179.195 342.999L178.301 342.774C179.294 362.791 178.202 386.621 175.011 406.458L173.987 412.836C173.953 413.032 173.961 413.234 174.012 413.427C174.065 413.62 174.158 413.799 174.287 413.953C174.416 414.107 174.578 414.231 174.761 414.317C174.943 414.403 175.142 414.448 175.344 414.451H179.559C184.221 398.532 184.82 364.122 184.865 350.813L185.745 350.76Z" fill="black"/>
<path d="M253.385 410.854H265.423C265.849 410.856 266.271 410.77 266.661 410.6C267.052 410.431 267.401 410.182 267.688 409.87C267.973 409.558 268.189 409.19 268.322 408.79C268.454 408.39 268.499 407.967 268.455 407.549L264.801 379.449C262.915 364.951 262.767 350.284 264.361 335.752L267.522 306.905L271.229 301.073C271.297 292.01 266.954 284.421 258.191 281.677L235.45 278.334C231.887 292.601 233.767 328.843 234.76 392.654L235.336 407.781C235.367 408.582 235.711 409.34 236.296 409.898C236.88 410.455 237.661 410.769 238.474 410.772L253.385 410.854Z" fill="#21252B"/>
<path d="M253.384 414.593H265.422C265.849 414.596 266.271 414.509 266.661 414.34C267.052 414.17 267.401 413.921 267.687 413.609C267.973 413.297 268.189 412.93 268.321 412.53C268.454 412.13 268.499 411.706 268.454 411.288L264.732 379.278C262.868 364.921 262.723 350.397 264.3 336.007L267.484 306.943L271.191 301.111C271.259 292.049 266.915 284.459 258.152 281.715L234.653 277.625C231.09 291.892 233.728 328.882 234.721 392.692L235.366 413.3C235.379 413.633 235.523 413.948 235.765 414.181C236.008 414.413 236.331 414.545 236.67 414.548L253.384 414.593Z" fill="#034935"/>
<path d="M179.955 330.623L180.144 327.146L178.363 322.435C178.719 311.264 175.99 304.423 170.146 294.77L162.035 297.678L157.752 328.335L179.955 330.623Z" fill="#034935"/>
<path d="M243.317 262.371L228.915 255.036L230.84 220.544L243.211 222.114L249.056 226.967C249.056 226.967 248.722 228.911 248.639 230.047C248.32 234.421 251.974 236.695 256.151 239.02L243.317 262.371Z" fill="#21252B"/>
<path d="M260.404 344.425L257.584 327.684L271.04 297.117L279.469 349.368L260.404 344.425Z" fill="#034935"/>
<path d="M259.63 336.755L276.421 329.906L281.174 354.85L261.92 351.904L259.63 336.755Z" fill="#FC9D9D"/>
<path opacity="0.15" d="M263.277 348.762L259.881 314.658C260.04 314.068 260.207 313.477 260.396 312.901C260.624 312.213 262.541 308.273 262.837 307.622C263.12 306.956 263.523 306.345 264.027 305.82C263.409 306.241 262.892 306.79 262.511 307.428C262.231 307.839 260.336 311.54 260.108 311.981C260.275 311.002 260.449 310.022 260.631 309.05C260.904 307.727 261.162 306.411 261.495 305.102C261.814 303.789 262.204 302.494 262.663 301.222C261.945 302.391 261.347 303.629 260.881 304.915C260.401 306.2 259.999 307.511 259.676 308.841C259.335 310.164 259.085 311.503 258.842 312.849C258.6 314.195 257.91 321.111 257.796 322.479L258.554 316.946C256.826 331.766 256.424 347.424 256.424 347.424L263.277 348.762Z" fill="black"/>
<path d="M257.425 261.772C257.719 263.315 257.581 264.908 257.023 266.378C256.455 267.93 255.416 269.272 254.047 270.222C252.679 271.171 251.048 271.683 249.375 271.687C248.522 271.673 247.676 271.532 246.866 271.268C245.94 270.984 244.949 270.981 244.02 271.258C243.092 271.535 242.269 272.081 241.658 272.824C240.47 274.236 238.915 275.302 237.158 275.907C235.401 276.512 233.511 276.632 231.69 276.256C230.228 275.919 228.852 275.286 227.651 274.396C226.45 273.506 225.451 272.378 224.717 271.086C223.983 269.793 223.53 268.364 223.388 266.889C223.245 265.414 223.417 263.926 223.89 262.52C224.571 260.342 225.963 258.447 227.85 257.131C229.736 255.815 232.012 255.152 234.32 255.245C235.872 255.331 237.384 255.764 238.743 256.508C240.101 257.252 241.271 258.29 242.166 259.544C242.814 258.266 243.789 257.175 244.993 256.381C243.756 255.122 242.849 253.584 242.351 251.9C241.853 250.216 241.779 248.439 242.136 246.721C242.388 245.341 242.924 244.027 243.71 242.859C244.497 241.691 245.517 240.695 246.709 239.931C247.9 239.166 249.238 238.65 250.638 238.416C252.04 238.18 253.475 238.23 254.855 238.563C256.733 239.089 258.433 240.102 259.777 241.497C261.121 242.892 262.061 244.618 262.499 246.493C262.935 248.369 262.853 250.327 262.261 252.161C261.669 253.995 260.588 255.639 259.131 256.92C258.442 257.512 257.923 258.271 257.624 259.122C257.324 259.973 257.256 260.887 257.425 261.772Z" fill="#21252B"/>
<path opacity="0.15" d="M280.46 349.959L266.065 338.826L264.549 347.933L281.354 354.52L280.46 349.959Z" fill="black"/>
<path d="M245.304 337.996L240.869 333.592C240.473 333.202 239.983 332.919 239.444 332.77L232.273 330.781C231.556 330.577 230.789 330.616 230.097 330.893L214.83 336.912L179.112 345.631L179.953 330.601L157.743 328.291L153.369 359.606C153.369 367.419 159.956 370.59 165.793 369.872C171.63 369.154 179.392 365.827 181.265 365.004L181.439 365.199L218.302 346.79C221.886 347.099 225.495 346.944 229.036 346.326L232.22 346.677C232.882 346.748 233.551 346.629 234.145 346.333L234.903 345.974C235.028 345.908 235.131 345.809 235.201 345.688C235.271 345.568 235.306 345.43 235.301 345.291C235.297 345.152 235.253 345.017 235.174 344.902C235.096 344.786 234.987 344.694 234.858 344.636L232.326 343.567L235.244 344.389C235.47 344.456 235.71 344.456 235.934 344.389L236.434 344.225C236.611 344.166 236.771 344.068 236.903 343.938C237.034 343.808 237.133 343.651 237.193 343.477C237.274 343.236 237.272 342.977 237.189 342.738C237.105 342.498 236.944 342.293 236.73 342.154L236.071 341.727L237.738 342.378C237.945 342.459 238.167 342.491 238.387 342.468C238.608 342.447 238.82 342.371 239.004 342.251L239.414 341.982C239.67 341.818 239.86 341.573 239.952 341.286C240.04 341.016 240.038 340.727 239.949 340.458C239.859 340.189 239.685 339.955 239.451 339.791L234.145 336.052C234.032 335.968 233.95 335.848 233.915 335.712C233.878 335.576 233.891 335.432 233.948 335.304C234.014 335.17 234.128 335.064 234.268 335.008C234.408 334.952 234.564 334.948 234.706 334.998L238.883 336.232L243.742 339.828C243.991 340.013 244.301 340.097 244.61 340.066C244.919 340.034 245.205 339.887 245.409 339.655C245.613 339.424 245.72 339.125 245.709 338.818C245.698 338.511 245.57 338.22 245.349 338.004L245.304 337.996Z" fill="#FC9D9D"/>
<path opacity="0.15" d="M234.865 345.196C234.865 347.036 228.801 345.196 228.801 345.196C226.004 345.196 217.605 343.813 217.605 343.813L179.665 358.827C154.582 368.039 154.081 354.513 154.081 354.513L153.369 359.62C153.369 367.434 159.956 370.604 165.793 369.886C169.091 369.475 175.003 367.785 181.348 365.116L181.439 365.213L218.302 346.804C221.886 347.114 225.495 346.958 229.036 346.34L232.22 346.692C232.882 346.763 233.551 346.644 234.145 346.348L234.903 345.989C235.047 345.917 235.164 345.802 235.237 345.66L234.865 345.196Z" fill="black"/>
<path opacity="0.15" d="M236.421 341.899L232.54 340.134" stroke="black" stroke-width="0.62" stroke-miterlimit="10" stroke-linecap="round"/>
<path opacity="0.15" d="M233.712 344.187L230.665 342.893" stroke="black" stroke-width="0.62" stroke-miterlimit="10" stroke-linecap="round"/>
<path d="M207.152 248.821L205.28 276.584C205.174 277.808 205.472 279.033 206.129 280.076C210.177 286.402 223.875 292.242 232.812 280.076C233.608 278.999 234.328 277.878 234.093 276.569L231.182 256.508L207.152 248.821Z" fill="#FC9D9D"/>
<path opacity="0.15" d="M232.295 265.19L231.446 260.15L222.986 262.715C223.016 262.74 223.044 262.768 223.07 262.797C220.742 262.694 218.453 262.172 216.316 261.257C216.179 261.196 216.025 261.189 215.884 261.238C215.743 261.286 215.626 261.387 215.558 261.518C215.517 261.589 215.493 261.669 215.486 261.749C215.479 261.831 215.489 261.912 215.515 261.99C215.542 262.067 215.583 262.138 215.639 262.199C215.695 262.259 215.762 262.307 215.838 262.341C218.258 263.397 220.87 263.959 223.517 263.993C223.851 263.993 224.192 263.993 224.54 263.956C227.883 265.982 232.295 265.19 232.295 265.19Z" fill="black"/>
<path d="M223.693 262.812H222.496C213.619 262.969 206.001 255.387 205.819 246.624L205.349 224.499C205.324 223.104 205.859 221.756 206.837 220.747C207.816 219.739 209.157 219.153 210.572 219.115L231.592 218.682C232.506 218.663 233.416 218.821 234.268 219.15C235.12 219.478 235.898 219.968 236.558 220.594C237.218 221.219 237.746 221.966 238.113 222.793C238.479 223.619 238.677 224.509 238.695 225.411L239.157 246.063C239.354 254.715 232.949 262.902 223.693 262.812Z" fill="#FC9D9D"/>
<path d="M222.433 251.678L223.001 252.561C223.37 253.081 223.862 253.505 224.436 253.795C225.009 254.085 225.645 254.232 226.289 254.223C226.933 254.215 227.565 254.05 228.129 253.744C228.694 253.439 229.175 253.002 229.528 252.471L230.187 251.432C230.324 251.207 230.187 250.931 229.953 250.96L222.698 251.23C222.456 251.177 222.304 251.476 222.433 251.678Z" fill="white"/>
<path d="M245.69 226.501C244.976 227.941 243.835 229.132 242.419 229.916C241.003 230.7 239.378 231.04 237.761 230.891C235.046 230.681 232.501 229.503 230.604 227.576C228.706 225.649 227.585 223.106 227.452 220.422H227.353C226.272 221.833 224.855 222.959 223.227 223.7C221.599 224.441 219.811 224.774 218.022 224.67C216.984 224.605 215.962 224.388 214.99 224.026C213.716 235.788 206.348 236.7 206.348 236.7C206.28 237.829 206.151 240.095 205.992 242.772C205.878 244.589 208.061 245.471 207.008 246.787L207.576 246.825C207.265 247.266 208.092 247.827 207.872 248.32C207.506 249.155 207.293 250.045 207.243 250.952C207.149 252.237 207.398 253.522 207.963 254.682C208.528 255.843 209.39 256.838 210.464 257.569C212.663 259.147 215.081 261.308 215.414 264.052C215.831 267.484 213.269 273.773 204.612 273.608C202.118 273.563 182.136 273.032 184.532 255.461C184.89 254.007 185.476 252.618 186.268 251.341C186.748 250.445 187.03 249.459 187.094 248.447C187.246 246.032 185.73 244.305 184.16 242.742C183.269 241.95 182.572 240.97 182.118 239.875C181.666 238.779 181.469 237.597 181.545 236.416C181.629 234.801 182.227 233.252 183.252 231.99C184.278 230.727 185.68 229.814 187.261 229.38C187.703 229.262 188.1 229.019 188.405 228.682C188.711 228.345 188.911 227.928 188.982 227.481C189.664 223.63 194.189 213.805 208.152 215.36C207.902 211.308 212.018 205.378 218.105 205.214C223.313 205.079 227.566 209.102 230.287 212.534C231.053 213.534 232.059 214.329 233.214 214.851C234.368 215.373 235.636 215.605 236.905 215.525C238.026 215.428 239.656 214.889 241.233 214.979C247.297 215.301 250.026 220.527 249.048 227.085L245.69 226.501Z" fill="#21252B"/>
<path d="M219.909 244.477C220.254 244.505 220.599 244.432 220.902 244.267C221.205 244.102 221.451 243.852 221.61 243.548C221.769 243.245 221.833 242.902 221.794 242.563C221.755 242.223 221.615 241.903 221.392 241.642C221.168 241.381 220.872 241.192 220.539 241.097C220.207 241.002 219.853 241.007 219.524 241.11C219.194 241.213 218.902 241.411 218.686 241.678C218.47 241.944 218.339 242.268 218.309 242.608C218.289 242.834 218.315 243.062 218.385 243.279C218.455 243.495 218.567 243.696 218.715 243.87C218.864 244.044 219.046 244.187 219.251 244.291C219.455 244.396 219.679 244.458 219.909 244.477Z" fill="#21252B"/>
<path d="M220.811 243.192C220.855 243.195 220.899 243.189 220.94 243.176C220.982 243.162 221.021 243.14 221.053 243.112C221.087 243.083 221.114 243.049 221.133 243.01C221.153 242.971 221.164 242.928 221.167 242.886C221.172 242.842 221.168 242.799 221.156 242.757C221.143 242.716 221.122 242.677 221.093 242.644C221.065 242.611 221.03 242.584 220.99 242.566C220.951 242.546 220.908 242.536 220.864 242.534C220.775 242.527 220.688 242.555 220.62 242.612C220.553 242.669 220.511 242.75 220.504 242.837C220.497 242.924 220.525 243.011 220.583 243.077C220.64 243.144 220.723 243.185 220.811 243.192Z" fill="white"/>
<path d="M233.289 243.542C233.634 243.571 233.98 243.497 234.283 243.332C234.586 243.167 234.832 242.917 234.991 242.614C235.15 242.31 235.213 241.967 235.175 241.628C235.136 241.289 234.997 240.968 234.773 240.708C234.55 240.447 234.253 240.257 233.921 240.162C233.588 240.067 233.235 240.072 232.904 240.175C232.575 240.278 232.284 240.476 232.068 240.743C231.851 241.009 231.72 241.333 231.69 241.673C231.67 241.899 231.696 242.128 231.766 242.344C231.836 242.56 231.948 242.762 232.097 242.935C232.246 243.109 232.427 243.252 232.632 243.356C232.837 243.461 233.06 243.524 233.289 243.542Z" fill="#21252B"/>
<path d="M234.312 242.168C234.402 242.174 234.49 242.145 234.558 242.088C234.626 242.03 234.668 241.949 234.676 241.861C234.684 241.774 234.655 241.687 234.597 241.62C234.54 241.554 234.458 241.513 234.369 241.506C234.281 241.499 234.193 241.527 234.126 241.584C234.058 241.641 234.016 241.721 234.009 241.809C234.003 241.896 234.031 241.982 234.087 242.048C234.144 242.115 234.225 242.158 234.312 242.168Z" fill="white"/>
<path opacity="0.15" d="M227.307 248.366H224.95C224.692 248.366 224.404 248.141 224.472 247.902C224.54 247.663 224.692 247.364 224.934 247.424H227.269C227.412 247.436 227.557 247.418 227.693 247.373C227.829 247.327 227.954 247.254 228.06 247.158C228.166 247.062 228.251 246.945 228.308 246.815C228.366 246.686 228.396 246.545 228.396 246.403C228.396 246.262 228.366 246.121 228.308 245.991C228.251 245.861 228.166 245.744 228.06 245.649C227.954 245.553 227.829 245.48 227.693 245.434C227.557 245.388 227.412 245.37 227.269 245.382C227.004 245.382 226.723 245.166 226.784 244.926C226.845 244.687 227.012 244.388 227.254 244.448C227.8 244.457 228.32 244.677 228.703 245.06C229.088 245.443 229.305 245.958 229.308 246.496C229.289 247.004 229.068 247.484 228.694 247.833C228.32 248.183 227.822 248.374 227.307 248.366Z" fill="black"/>
<path d="M208.705 250.266C208.705 250.266 201.435 252.741 198.009 245.899C194.583 239.057 203.27 235.431 206.529 242.355L209.622 250.019L208.705 250.266Z" fill="#FC9D9D"/>
<path opacity="0.15" d="M199.26 241.449C199.504 241.119 199.817 240.845 200.178 240.646C200.539 240.447 200.94 240.329 201.353 240.297C201.766 240.292 202.174 240.378 202.55 240.549C202.925 240.72 203.256 240.971 203.521 241.284C204.263 242.021 204.809 242.928 205.112 243.924L205.363 244.671C205.529 245.247 204.605 245.658 204.362 245L204.112 244.178C203.848 243.384 203.419 242.653 202.854 242.032C202.674 241.834 202.456 241.674 202.213 241.561C201.969 241.447 201.705 241.384 201.436 241.374C200.877 241.472 200.371 241.763 200.011 242.196C199.928 242.287 199.815 242.344 199.693 242.359C199.57 242.375 199.446 242.346 199.344 242.279C199.231 242.174 199.16 242.032 199.144 241.879C199.129 241.727 199.17 241.573 199.26 241.449Z" fill="black"/>
<path d="M233.78 233.403C232.749 233.52 231.758 233.864 230.88 234.412C230.003 234.96 229.264 235.696 228.716 236.566C227.3 236.122 225.77 236.186 224.395 236.745C223.684 235.692 222.696 234.848 221.538 234.3C220.381 233.753 219.095 233.523 217.816 233.635C216.444 233.784 215.149 234.331 214.093 235.206C213.036 236.081 212.267 237.246 211.882 238.553C211.497 239.86 211.513 241.25 211.93 242.547C212.345 243.845 213.142 244.991 214.219 245.842C215.295 246.693 216.604 247.209 217.979 247.326C219.353 247.444 220.732 247.156 221.94 246.5C223.149 245.844 224.133 244.849 224.769 243.642C225.404 242.433 225.662 241.066 225.51 239.714C225.443 238.959 225.227 238.226 224.873 237.553C225.988 237.139 227.204 237.068 228.36 237.351C227.838 238.499 227.636 239.765 227.776 241.015C228.035 242.78 228.979 244.377 230.407 245.47C231.836 246.562 233.64 247.064 235.438 246.87C237.234 246.676 238.885 245.801 240.041 244.43C241.197 243.058 241.768 241.298 241.633 239.519C241.385 237.694 240.427 236.036 238.962 234.894C237.496 233.753 235.638 233.218 233.78 233.403ZM219.203 246.451C218.011 246.582 216.807 246.36 215.742 245.815C214.678 245.27 213.802 244.427 213.224 243.39C212.645 242.354 212.391 241.173 212.494 239.993C212.597 238.815 213.051 237.693 213.8 236.769C214.549 235.846 215.558 235.162 216.701 234.804C217.845 234.446 219.07 234.431 220.221 234.759C221.373 235.088 222.4 235.746 223.173 236.651C223.946 237.556 224.43 238.665 224.562 239.841C224.651 240.622 224.583 241.413 224.361 242.169C224.14 242.923 223.769 243.628 223.272 244.242C222.774 244.856 222.159 245.367 221.46 245.746C220.762 246.125 219.995 246.365 219.203 246.451ZM235.258 246.152C234.067 246.283 232.862 246.061 231.798 245.516C230.733 244.971 229.857 244.128 229.279 243.091C228.7 242.055 228.446 240.874 228.549 239.694C228.652 238.516 229.106 237.394 229.855 236.47C230.604 235.547 231.614 234.863 232.757 234.505C233.9 234.147 235.125 234.132 236.276 234.46C237.428 234.789 238.456 235.447 239.228 236.352C240.001 237.257 240.485 238.366 240.617 239.542C240.719 240.327 240.66 241.124 240.443 241.886C240.227 242.648 239.859 243.359 239.359 243.978C238.86 244.596 238.239 245.111 237.535 245.489C236.83 245.868 236.056 246.103 235.258 246.182V246.152Z" fill="white"/>
<path d="M206.112 249.688C206.412 249.688 206.705 249.601 206.954 249.437C207.203 249.273 207.398 249.039 207.512 248.766C207.628 248.492 207.657 248.192 207.599 247.901C207.54 247.611 207.396 247.345 207.184 247.136C206.972 246.927 206.702 246.784 206.408 246.727C206.114 246.669 205.809 246.698 205.532 246.812C205.255 246.925 205.018 247.116 204.852 247.362C204.685 247.608 204.595 247.898 204.595 248.193C204.595 248.59 204.755 248.971 205.04 249.251C205.324 249.531 205.71 249.688 206.112 249.688Z" fill="#034935"/>
<path opacity="0.15" d="M206.863 249.279C206.442 249.386 205.996 249.325 205.621 249.109C205.247 248.894 204.973 248.541 204.862 248.127C204.777 247.831 204.777 247.518 204.862 247.223C204.705 247.401 204.592 247.612 204.535 247.841C204.476 248.07 204.474 248.308 204.528 248.539C204.566 248.733 204.646 248.918 204.762 249.08C204.878 249.242 205.028 249.378 205.201 249.479C205.375 249.58 205.568 249.644 205.768 249.666C205.968 249.689 206.171 249.668 206.362 249.608C206.67 249.546 206.942 249.369 207.12 249.114C207.113 249.279 207.03 249.279 206.863 249.279Z" fill="black"/>
<path opacity="0.15" d="M207.196 250.595L209.788 250.019L207.779 256.367L207.196 250.595Z" fill="black"/>
<path opacity="0.15" d="M265.921 661.64L234.804 445.675C234.323 442.277 232.515 439.2 229.767 437.096C227.019 434.993 223.547 434.031 220.091 434.414H219.795C220.548 434.396 221.282 434.65 221.858 435.13C222.434 435.61 222.811 436.281 222.918 437.016L257.788 661.633L265.921 661.64Z" fill="black"/>
<path d="M268.264 345.256L279.528 351.806C280.552 352.397 280.953 353.593 281.112 354.797C281.575 358.536 279.801 368.48 269.499 365.4C268.731 365.152 268.069 364.657 267.619 363.994L260.797 354.206L268.264 345.256Z" fill="#FC9D9D"/>
<path opacity="0.15" d="M264.08 354.603C265.968 352.958 267.87 349.967 268.499 345.51L267.575 345.009L260.388 354.483L261.541 355.732L267.605 364.031C268.057 364.695 268.722 365.19 269.492 365.437C276.701 367.606 279.703 363.837 280.749 359.224C275.754 369.206 266.961 360.382 263.913 356.831C263.646 356.509 263.515 356.099 263.546 355.684C263.577 355.27 263.769 354.882 264.08 354.603Z" fill="black"/>
<path d="M247.875 329.419L227.423 353.847L228.992 355.53L262.187 350.535L278.644 326.099L277.12 324.746L247.875 329.419Z" fill="#263238"/>
<path opacity="0.15" d="M229.059 355.358L248.806 331.423L278.718 325.86L277.027 324.746L247.684 329.195L227.361 354.244L229.059 355.358Z" fill="black"/>
<path d="M261.222 335.88C261.845 335.88 262.351 335.381 262.351 334.765C262.351 334.151 261.845 333.651 261.222 333.651C260.598 333.651 260.092 334.151 260.092 334.765C260.092 335.381 260.598 335.88 261.222 335.88Z" fill="#FAFAFA"/>
<path d="M269.568 335.864C268.935 335.868 268.317 336.058 267.795 336.414C267.272 336.768 266.871 337.27 266.642 337.853C266.15 339.117 265.429 340.59 264.634 341.023C263.155 341.816 260.608 342.451 259.267 341.771C257.925 341.091 252.566 336.365 251.626 336.896C250.686 337.427 249.882 338.608 250.822 339.67C251.762 340.732 256.72 343.902 255.78 344.964C254.84 346.026 244.409 341.36 242.772 341.771C241.134 342.182 240.225 343.162 241.165 343.797C242.105 344.433 249.208 347.125 249.594 348.037C249.594 348.037 238.86 345.255 238.459 345.913C238.057 346.571 237.39 347.633 238.459 348.037C239.527 348.441 248.783 350.811 249.594 351.207C250.923 351.752 252.309 352.152 253.725 352.396C255.188 352.775 256.631 353.226 258.046 353.75C260.218 354.491 262.588 354.43 264.717 353.578L265.809 353.136C266.633 352.806 267.331 352.229 267.804 351.485C268.278 350.741 268.503 349.87 268.446 348.994L268.234 345.39L269.402 342.399L269.568 335.864Z" fill="#FC9D9D"/>
<path d="M248.805 349.795L241.475 349.234C241.475 349.234 240.3 349.623 240.883 350.4C241.011 350.562 241.172 350.696 241.354 350.794C241.537 350.891 241.738 350.951 241.945 350.969L254.452 352.576L248.805 349.795Z" fill="#FC9D9D"/>
<path opacity="0.15" d="M199.163 277.916L197.791 305.477L209.98 298.568L205.387 277.094L199.163 277.916Z" fill="black"/>
<path d="M199.959 277.767L199.254 302.801L209.738 297.836L205.228 274.948L199.959 277.767Z" fill="#034935"/>
<path opacity="0.15" d="M239.876 278.731L246.304 306.337L232.326 299.929L234.047 276.719L239.876 278.731Z" fill="black"/>
<path d="M234.047 275.59L232.326 298.83L244.462 304.086L238.944 278.454L234.047 275.59Z" fill="#034935"/>
<path opacity="0.15" d="M179.112 345.63L175.224 346.886C175.127 346.909 175.027 346.902 174.935 346.864C174.844 346.827 174.767 346.761 174.716 346.677C174.665 346.594 174.643 346.496 174.652 346.399C174.662 346.302 174.703 346.211 174.769 346.138L179.112 342.272V345.63Z" fill="black"/>
</g>
<defs>
<clipPath id="clip0_703_75">
<rect width="971" height="731" fill="white"/>
</clipPath>
</defs>
</svg>
