<svg width="48" height="48" viewBox="0 0 48 48" fill="none" xmlns="http://www.w3.org/2000/svg">
<path fill-rule="evenodd" clip-rule="evenodd" d="M6.85714 4H29.7143C31.2922 4 32.5714 5.27919 32.5714 6.85714V29.7143C32.5714 31.2922 31.2922 32.5714 29.7143 32.5714H6.85714C5.27919 32.5714 4 31.2922 4 29.7143V6.85714C4 5.27919 5.27919 4 6.85714 4ZM40.1905 15.4286H41.1429C42.7208 15.4286 44 16.7078 44 18.2857V41.1429C44 42.7208 42.7208 44 41.1429 44H18.2857C16.7078 44 15.4286 42.7208 15.4286 41.1429V40.1905H35.4286C38.0585 40.1905 40.1905 38.0585 40.1905 35.4286V15.4286Z" fill="#034935"/>
<path d="M34.4763 9.71429H35.4286C37.0066 9.71429 38.2858 10.9935 38.2858 12.5714V35.4286C38.2858 37.0065 37.0066 38.2857 35.4286 38.2857H12.5715C10.9935 38.2857 9.71436 37.0065 9.71436 35.4286V34.4762H29.7144C32.3443 34.4762 34.4763 32.3442 34.4763 29.7143V9.71429Z" fill="#B4CCEF" fill-opacity="0.7"/>
</svg>
