<svg width="48" height="48" viewBox="0 0 48 48" fill="none" xmlns="http://www.w3.org/2000/svg">
<path d="M10.0783 16.2493H14.7659C15.5513 16.2493 16.188 16.863 16.188 17.6201C16.188 18.3772 15.5513 18.9909 14.7659 18.9909H7.18179C6.39643 18.9909 5.75977 18.3772 5.75977 17.6201V10.309C5.75977 9.55196 6.39643 8.93822 7.18179 8.93822C7.96716 8.93822 8.60382 9.55196 8.60382 10.309V13.3561C13.2264 6.98542 21.8169 4.09564 29.7673 6.73458C37.247 9.21728 42.2426 16.0019 42.2398 23.5897C42.2398 24.3468 41.6026 24.9603 40.8172 24.96C40.0319 24.9597 39.3954 24.3458 39.3957 23.5887C39.3981 17.169 35.1705 11.4276 28.8414 9.32685C21.5873 6.91903 13.7024 9.95132 10.0783 16.2493Z" fill="#076537" fill-opacity="0.7"/>
<path fill-rule="evenodd" clip-rule="evenodd" d="M37.8737 31.7296H33.247C32.4628 31.7296 31.8271 31.1147 31.8271 30.3561C31.8271 29.5975 32.4628 28.9826 33.247 28.9826H40.8199C41.6041 28.9826 42.2398 29.5975 42.2398 30.3561V37.6815C42.2398 38.4401 41.6041 39.055 40.8199 39.055C40.0357 39.055 39.3999 38.4401 39.3999 37.6815V34.5537C34.7946 40.9941 26.1773 43.9162 18.2136 41.2637C10.7597 38.781 5.77499 32.0041 5.75977 24.4162C5.75825 23.6576 6.39273 23.0415 7.17693 23.04C7.96112 23.0385 8.59807 23.6523 8.59959 24.4108C8.61246 30.8307 12.8308 36.5655 19.1382 38.6663C26.3758 41.077 34.2528 38.0454 37.8737 31.7296Z" fill="#034935"/>
</svg>
